{"glyphs":{"0":{"ha":829,"x_min":42,"x_max":781,"o":"m 685 893 q 781 517 781 744 q 697 139 781 289 q 485 -7 631 15 q 492 -16 489 -11 q 499 -25 496 -21 q 511 -60 507 -42 q 519 -97 515 -78 q 525 -137 522 -108 q 531 -201 528 -165 q 536 -278 533 -237 q 542 -355 539 -318 q 547 -419 544 -392 q 553 -460 550 -447 q 547 -508 560 -486 q 508 -539 535 -531 q 458 -532 482 -546 q 440 -515 447 -525 q 429 -493 432 -504 q 417 -442 422 -468 q 406 -392 413 -417 q 403 -367 404 -387 q 401 -318 403 -347 q 399 -256 400 -289 q 398 -195 399 -224 q 396 -146 397 -167 q 394 -121 394 -125 q 392 -112 392 -117 q 390 -103 392 -107 q 378 -113 383 -101 q 369 -140 374 -125 q 360 -165 364 -154 q 351 -169 356 -175 q 344 -144 347 -164 q 340 -101 342 -124 q 336 -58 338 -78 q 335 -31 335 -37 l 335 -12 l 335 -4 q 128 138 197 21 q 42 515 42 289 q 128 892 42 743 q 414 1042 213 1042 q 685 893 615 1042 m 278 768 q 231 525 231 690 q 256 319 231 403 l 469 840 q 441 849 456 846 q 410 850 426 851 q 278 768 324 846 m 600 510 q 576 704 601 624 l 390 251 q 394 227 392 249 q 399 180 397 206 q 403 133 401 154 q 404 108 404 111 q 410 138 400 124 q 442 172 421 153 q 491 215 463 190 q 551 276 519 240 q 600 510 600 342 z "},"1":{"ha":661,"x_min":81,"x_max":599,"o":"m 599 129 l 599 19 l 579 0 l 358 -65 q 350 -68 356 -65 q 330 -69 340 -71 q 310 -65 319 -68 l 286 0 q 283 -1 283 0 q 279 -1 282 -1 q 228 -11 258 -11 q 215 -11 221 -14 q 216 -68 215 -29 q 217 -149 217 -107 q 219 -231 218 -192 q 222 -287 221 -269 q 217 -312 224 -300 q 203 -332 211 -324 q 183 -347 194 -343 q 158 -351 171 -350 q 133 -347 146 -353 q 113 -332 121 -340 q 99 -311 103 -322 q 93 -287 96 -300 q 90 -226 92 -267 q 88 -141 89 -186 q 88 -56 88 -96 q 88 6 88 -15 l 81 19 l 81 129 l 88 150 l 267 150 l 267 846 q 258 844 264 844 l 257 844 q 247 838 256 843 q 235 830 240 833 q 222 824 229 826 q 227 806 225 814 q 232 789 229 797 q 235 756 235 783 q 234 698 235 729 q 231 640 233 667 q 226 607 229 613 q 209 589 219 596 q 188 578 199 582 q 163 576 176 574 q 138 585 149 578 q 120 601 126 592 q 108 622 114 611 q 99 672 103 636 q 93 747 96 707 q 88 822 90 786 q 86 872 86 857 q 87 892 86 882 q 90 911 88 901 q 94 920 93 919 q 99 919 96 921 q 108 915 103 917 q 122 915 113 913 q 128 902 124 915 q 136 873 132 889 q 144 844 140 857 q 150 832 149 832 l 153 971 l 267 1040 l 418 1040 l 418 150 l 579 150 l 599 129 z "},"2":{"ha":822,"x_min":38,"x_max":751,"o":"m 751 -403 q 746 -428 751 -417 q 732 -449 740 -439 q 711 -462 724 -458 q 686 -467 699 -467 q 663 -462 675 -468 q 642 -449 650 -457 q 628 -427 632 -439 q 622 -403 624 -415 q 622 -354 622 -394 q 620 -268 621 -314 q 619 -182 619 -222 q 617 -133 618 -142 q 610 -97 614 -114 q 603 -60 607 -79 q 599 -47 600 -53 q 596 -33 599 -40 q 595 -37 596 -36 q 594 -39 594 -37 q 565 -78 586 -65 q 515 -85 543 -92 q 476 -54 490 -78 q 469 -33 469 -43 q 469 -11 468 -22 q 422 -17 447 -21 q 394 0 407 -12 l 75 0 l 65 17 l 65 139 l 76 151 q 117 197 97 175 q 156 239 138 219 q 193 277 175 258 q 229 314 211 296 q 266 351 249 333 q 303 386 283 368 q 342 423 322 404 q 382 463 361 442 q 415 494 399 478 q 447 525 431 510 q 506 583 481 556 q 530 612 519 599 q 550 638 540 625 q 575 683 568 663 q 574 728 579 697 q 547 792 567 761 q 524 822 538 808 q 492 849 510 836 q 399 874 456 874 q 360 869 378 874 q 349 856 357 864 q 328 841 340 846 q 303 836 315 836 l 286 836 q 269 821 276 829 q 254 803 261 813 q 226 743 233 771 q 222 724 224 732 q 217 707 219 715 q 231 646 231 679 q 230 622 231 642 q 228 576 229 603 q 226 519 228 549 q 224 462 225 489 q 222 416 224 435 q 219 393 221 397 q 190 354 213 368 q 166 346 179 347 q 140 347 153 344 q 119 358 129 350 q 103 376 108 367 q 98 419 100 382 q 94 501 96 457 q 94 582 93 544 q 96 625 94 619 q 99 636 99 633 q 63 657 76 643 q 47 683 51 671 l 38 689 q 71 824 44 761 q 131 922 94 881 q 144 942 135 932 q 160 954 150 950 q 249 1011 197 988 q 392 1039 313 1039 q 503 1022 440 1038 q 617 968 563 1008 q 708 861 671 931 q 744 683 744 792 q 724 608 744 646 q 701 574 713 590 q 675 540 689 557 q 648 510 661 525 q 621 485 635 496 q 596 463 606 472 q 579 446 586 453 l 297 153 l 494 153 q 497 139 496 153 q 499 103 497 125 q 501 56 500 81 q 503 8 501 31 q 506 -28 504 -14 q 508 -42 507 -42 q 517 -24 513 -40 q 527 14 522 -8 q 536 61 532 36 q 545 108 540 86 q 554 142 550 129 q 563 153 558 154 l 735 153 l 744 139 l 744 17 l 735 0 l 719 0 q 728 -48 724 -17 q 735 -118 732 -79 q 742 -200 739 -157 q 747 -282 744 -243 q 749 -353 749 -321 q 751 -403 750 -386 z "},"3":{"ha":826,"x_min":19,"x_max":785,"o":"m 767 411 q 782 300 785 368 q 743 128 782 189 q 650 35 707 68 q 531 -4 594 4 q 419 -12 468 -10 l 393 -12 l 393 -189 q 374 -234 393 -217 q 328 -253 354 -251 q 283 -233 303 -253 q 264 -189 264 -217 l 264 19 q 250 26 257 24 q 239 31 242 29 q 208 40 224 36 q 178 51 193 44 q 158 44 168 54 q 138 21 147 33 q 119 -1 128 8 q 103 -1 110 -10 q 79 63 79 24 q 80 82 79 65 q 81 117 81 99 q 80 153 81 136 q 79 172 79 169 q 74 193 76 186 q 67 203 71 199 q 61 214 64 208 q 53 238 54 225 q 54 264 51 251 q 71 292 58 279 q 67 314 68 303 q 64 336 65 325 l 75 343 l 228 343 l 239 336 q 245 312 242 325 q 253 283 249 299 q 282 224 261 253 q 336 174 300 194 q 425 153 369 153 q 518 167 485 153 q 574 200 556 181 q 601 246 596 222 q 607 271 606 258 q 608 296 608 283 q 588 369 611 336 q 562 401 576 388 q 531 426 547 415 q 456 463 493 450 q 379 476 417 474 l 319 476 l 319 615 l 379 615 q 521 644 456 617 q 603 733 583 672 q 601 762 603 749 q 596 789 599 775 q 567 835 588 814 q 510 865 546 856 q 468 874 492 872 q 415 876 444 876 q 326 856 361 876 q 272 807 292 833 q 267 797 269 801 q 261 789 264 793 q 265 745 264 782 q 267 665 267 708 q 265 585 267 622 q 258 542 263 549 q 232 517 251 526 q 231 512 232 514 q 231 507 231 510 l 218 688 l 208 688 q 203 640 211 663 q 171 594 192 611 q 185 576 178 585 q 199 556 192 567 q 205 530 203 550 q 208 487 207 510 q 208 443 208 464 q 206 417 207 422 q 194 394 203 404 q 176 378 186 385 q 126 371 153 364 q 88 401 101 379 q 82 424 85 406 q 76 463 79 442 q 69 503 72 485 q 63 526 67 522 q 52 540 57 533 q 40 553 47 546 q 35 560 38 557 q 29 568 32 564 q 19 600 19 585 q 22 622 19 608 q 26 635 24 629 q 32 646 29 640 q 72 683 46 668 q 76 685 75 685 q 79 688 76 686 l 65 688 l 54 693 q 89 828 63 765 q 158 939 114 890 q 265 1015 204 986 q 410 1043 329 1043 q 463 1040 435 1042 q 522 1033 490 1038 q 640 994 583 1028 q 735 901 694 964 q 774 731 774 836 q 750 644 765 681 q 710 592 733 611 q 658 561 688 572 q 603 544 633 551 q 663 526 631 540 q 693 509 678 519 q 722 483 708 499 q 767 411 750 456 z "},"4":{"ha":915,"x_min":26,"x_max":846,"o":"m 846 499 l 846 383 l 829 364 l 704 364 l 704 18 q 716 -16 710 14 q 728 -81 722 -46 q 738 -146 733 -115 q 746 -183 742 -176 q 754 -217 754 -199 q 753 -225 753 -221 q 751 -233 753 -229 q 741 -256 749 -246 q 722 -272 733 -265 q 697 -280 711 -279 q 672 -278 683 -281 q 650 -267 661 -275 q 635 -249 639 -260 q 633 -246 633 -247 q 631 -243 631 -243 q 610 -229 619 -236 q 590 -214 600 -222 q 578 -177 583 -208 q 569 -109 574 -146 q 560 -40 564 -72 q 554 0 557 -8 l 532 0 l 511 17 l 511 351 l 490 351 l 356 351 q 362 293 360 339 q 365 194 364 247 q 364 94 365 140 q 360 36 363 49 q 331 -3 354 14 q 306 -10 319 -10 q 281 -8 293 -11 q 259 2 269 -6 q 242 21 249 10 q 238 44 239 25 q 234 92 236 64 q 231 153 232 121 q 228 215 229 186 q 228 263 228 243 q 229 288 228 283 q 230 290 229 289 q 231 294 231 292 q 208 294 219 293 q 186 299 197 294 q 144 326 160 310 l 131 326 q 120 313 125 326 q 110 283 115 299 q 99 256 104 268 q 90 247 94 244 q 72 263 79 256 q 67 269 69 265 q 61 276 64 272 l 54 276 l 40 294 l 40 399 q 32 426 35 411 q 28 460 28 443 q 28 478 26 469 q 31 494 29 486 q 47 522 35 513 q 64 535 53 531 l 476 1040 l 704 1040 l 704 519 l 829 519 l 846 499 m 290 519 l 511 519 l 511 817 l 290 519 z "},"5":{"ha":847,"x_min":38,"x_max":806,"o":"m 785 538 q 806 399 806 476 q 775 213 801 288 q 701 89 747 135 q 594 19 656 40 q 463 0 532 -1 q 317 19 381 -1 q 289 4 303 8 q 286 3 288 4 q 283 3 285 3 q 297 -37 290 -17 q 307 -78 303 -57 q 308 -115 308 -82 q 308 -188 308 -149 q 308 -261 308 -228 q 307 -299 308 -294 q 303 -307 304 -303 q 300 -314 303 -311 q 283 -333 293 -325 q 261 -344 272 -340 q 213 -337 236 -351 q 193 -321 201 -332 q 182 -299 185 -310 q 179 -272 181 -292 q 176 -224 178 -251 q 173 -165 175 -196 q 169 -108 171 -135 q 165 -60 167 -81 q 160 -33 163 -40 q 137 13 149 -10 q 111 60 125 36 q 88 103 100 82 q 65 149 76 125 q 49 189 56 167 q 40 229 43 207 q 42 267 38 249 q 56 303 47 285 q 64 317 58 310 q 76 331 69 324 q 99 349 86 342 l 99 351 l 108 357 l 114 357 q 131 334 122 361 q 149 272 140 307 q 167 207 158 238 q 185 172 176 176 q 192 169 189 172 l 261 357 l 272 351 q 278 318 275 333 q 288 288 282 303 q 317 236 296 257 q 372 201 340 213 q 413 191 390 194 q 463 188 435 188 q 551 215 519 188 q 600 276 582 239 q 612 311 607 294 q 618 346 617 328 q 621 375 621 363 q 621 394 621 388 q 608 468 621 431 q 575 532 594 506 q 524 578 551 563 q 463 596 496 593 q 419 592 446 596 q 390 587 404 590 q 360 578 375 583 q 301 547 328 564 q 261 503 274 531 l 99 503 l 99 1024 l 108 1040 l 721 1040 l 731 1024 l 731 968 q 758 906 754 940 q 763 863 763 882 q 764 846 763 851 q 765 838 764 840 l 767 838 q 781 817 776 829 q 785 792 785 804 q 781 767 786 779 q 767 746 775 756 q 745 733 758 738 q 721 728 732 728 q 675 746 696 728 q 651 779 660 761 q 644 797 647 788 q 639 817 640 806 q 635 858 635 838 q 633 860 633 858 q 569 867 599 849 q 547 888 556 875 l 261 888 l 261 667 q 338 735 292 713 q 432 764 383 757 q 529 764 482 772 q 613 743 576 757 q 635 730 622 739 q 665 708 649 721 q 731 640 701 682 q 785 538 763 594 z "},"6":{"ha":858,"x_min":63,"x_max":790,"o":"m 756 521 q 789 344 790 454 q 751 167 789 235 q 658 61 713 100 q 543 11 604 24 q 545 -62 544 -11 q 547 -172 546 -114 q 548 -282 547 -231 q 549 -356 549 -333 q 551 -452 550 -404 q 554 -549 553 -500 q 535 -593 554 -574 q 515 -607 526 -603 q 490 -612 503 -611 q 444 -593 464 -612 q 431 -573 435 -585 q 425 -549 426 -561 q 424 -506 425 -526 q 422 -462 424 -485 q 422 -399 422 -446 q 421 -301 421 -353 q 420 -202 421 -249 q 419 -139 419 -156 l 400 -139 q 356 -117 374 -135 q 351 -111 353 -114 q 346 -106 349 -108 q 331 -87 338 -96 q 317 -69 324 -79 q 283 -17 297 -44 q 256 39 268 10 q 215 66 235 51 q 181 99 196 81 q 110 210 135 146 q 78 344 83 276 q 73 388 75 368 q 68 422 71 407 q 66 455 67 439 q 64 488 65 471 q 63 524 63 504 q 63 564 63 543 q 63 612 63 585 q 65 672 64 639 q 104 850 65 779 q 200 963 144 924 q 319 1021 257 1004 q 431 1039 379 1036 q 575 1011 511 1039 q 682 935 636 985 q 722 883 706 911 q 753 824 739 856 q 786 689 778 761 l 776 683 l 622 683 l 611 689 q 606 714 608 700 q 600 743 603 728 q 576 803 594 771 q 555 830 567 818 q 526 853 543 842 q 440 874 494 874 q 338 850 382 874 q 267 779 292 825 q 243 615 242 731 q 297 646 251 629 q 403 669 343 664 q 467 672 435 672 q 533 667 499 672 q 661 624 604 658 q 756 521 718 589 m 611 356 q 603 357 607 357 q 597 358 600 357 q 575 369 586 361 q 558 388 564 376 q 545 415 551 401 q 532 442 539 428 q 524 458 528 450 q 517 475 521 467 q 490 477 503 476 q 465 476 478 478 l 453 472 q 451 472 451 472 q 449 471 450 471 q 440 461 443 465 q 435 425 438 458 q 429 353 432 392 q 424 281 426 314 q 418 246 421 249 q 390 229 404 235 q 377 227 383 228 q 364 229 371 226 q 337 238 350 231 q 317 260 324 246 q 315 295 315 263 q 313 366 314 328 q 310 438 311 404 q 308 474 310 471 q 303 469 306 471 q 297 464 300 467 q 272 425 282 449 q 267 405 269 414 q 263 388 264 396 q 261 346 258 369 q 265 301 258 329 q 289 249 272 271 q 342 201 307 224 q 431 182 378 182 q 524 199 490 182 q 578 242 557 214 q 604 296 597 268 q 611 346 611 328 l 611 356 z "},"7":{"ha":896,"x_min":63,"x_max":840,"o":"m 840 1021 l 840 872 l 383 0 l 196 1 l 194 29 l 632 838 q 610 842 621 840 q 588 846 599 843 q 401 846 494 857 q 377 842 389 843 q 354 838 365 840 q 338 810 346 835 q 324 756 331 785 q 309 701 317 726 q 293 676 301 676 q 267 676 279 675 q 258 702 263 678 q 248 756 253 726 q 239 810 243 785 q 231 838 235 835 q 225 842 228 840 q 219 846 222 843 l 207 842 q 196 840 199 842 q 197 831 196 836 q 197 821 197 826 q 201 756 201 788 q 203 699 203 739 q 203 614 203 658 q 202 529 203 569 q 200 472 201 489 q 182 426 200 449 q 136 408 164 408 q 111 413 124 407 q 90 426 99 418 q 76 448 82 435 q 72 472 71 461 q 73 520 72 485 q 74 595 74 556 q 74 670 74 635 q 74 718 74 706 q 73 762 74 740 q 71 804 72 783 q 65 842 68 824 q 65 881 63 861 q 69 901 68 893 q 75 921 71 910 q 85 938 81 932 l 85 1021 l 92 1042 l 821 1042 l 840 1021 z "},"8":{"ha":822,"x_min":49,"x_max":772,"o":"m 769 294 q 743 144 772 204 q 668 50 715 85 q 554 0 621 15 q 494 -10 525 -7 q 432 -14 464 -12 q 435 -28 435 -22 q 437 -64 436 -36 q 438 -124 438 -92 q 436 -183 438 -156 q 433 -219 435 -211 q 423 -240 431 -231 q 404 -257 415 -250 q 380 -265 393 -264 q 354 -264 367 -267 q 333 -253 343 -261 q 317 -235 322 -244 q 310 -203 313 -229 q 308 -149 308 -178 q 308 -94 307 -119 q 310 -61 308 -68 l 310 -54 q 308 -45 308 -50 q 304 -36 307 -40 q 285 0 296 -19 q 275 2 279 1 q 265 4 271 3 q 151 58 200 21 q 78 153 106 92 q 49 297 51 211 q 65 410 49 364 q 110 482 85 456 q 169 524 138 511 q 199 535 185 531 q 225 542 213 539 q 226 543 225 543 q 199 551 213 546 q 171 564 186 557 q 117 611 140 583 q 94 642 104 625 q 76 679 85 660 q 61 769 61 722 q 92 888 61 839 q 171 972 125 940 q 282 1024 219 1007 q 345 1037 314 1032 q 408 1042 376 1042 q 540 1025 478 1039 q 651 976 603 1011 q 728 893 701 944 q 756 769 756 843 q 739 658 756 700 q 697 593 724 619 q 644 560 671 569 q 617 550 632 554 q 622 546 619 549 q 633 531 628 542 q 641 527 638 528 q 647 524 644 526 q 706 481 676 513 q 751 407 732 454 q 769 294 769 363 m 249 811 q 236 746 232 782 q 245 711 239 726 q 263 681 251 696 q 321 633 285 650 q 408 617 358 614 q 503 636 465 617 q 563 685 540 654 q 585 749 585 715 q 568 814 588 785 q 510 864 549 843 q 475 876 496 872 q 465 871 469 874 q 453 865 460 868 q 399 863 425 858 l 393 863 q 394 858 393 860 q 397 827 396 853 q 396 772 397 801 q 392 717 394 743 q 388 686 390 692 q 349 657 375 664 q 300 663 324 649 q 290 689 294 665 q 281 740 285 713 q 274 793 278 768 q 269 825 271 818 q 267 835 269 829 q 249 811 256 824 m 572 229 q 593 301 593 263 q 572 375 593 342 q 510 431 551 407 q 483 431 496 431 q 457 433 471 432 q 420 438 438 435 q 383 443 403 440 q 369 446 376 444 q 356 450 363 447 q 304 431 329 444 q 275 411 289 424 q 272 407 272 408 q 268 403 271 406 q 260 388 265 399 q 249 348 253 368 q 239 308 244 328 q 235 290 236 299 q 231 272 233 282 q 244 236 235 250 l 274 211 q 314 171 294 192 q 407 151 356 151 q 510 174 471 151 q 572 229 551 197 z "},"9":{"ha":896,"x_min":64,"x_max":821,"o":"m 821 471 q 820 422 821 449 q 818 363 819 394 q 781 182 818 253 q 686 71 740 111 q 628 36 658 50 q 567 14 599 22 q 454 -4 507 -1 q 311 24 371 -4 q 257 53 282 36 q 257 18 257 43 q 257 -35 257 -7 q 258 -89 257 -64 q 258 -124 258 -114 q 263 -143 261 -133 q 268 -162 265 -153 q 270 -187 272 -175 q 263 -211 268 -200 q 245 -230 256 -222 q 224 -242 235 -237 q 174 -235 197 -249 q 144 -196 153 -222 q 135 -147 139 -179 q 131 -77 132 -114 q 128 -7 129 -40 q 128 44 128 26 q 129 101 129 72 q 126 157 129 129 q 122 176 124 167 q 117 197 119 186 q 108 200 113 199 q 99 204 103 201 q 75 226 86 211 q 67 260 67 243 q 67 285 64 272 q 69 305 68 296 q 74 324 71 314 q 90 359 81 343 q 115 389 100 375 q 140 403 126 399 q 169 407 154 408 q 196 398 183 406 q 217 376 208 390 q 222 364 219 369 q 226 351 224 358 l 263 351 l 275 344 q 281 320 278 333 q 286 292 283 307 q 310 232 292 264 q 358 182 326 204 q 446 161 392 161 q 542 182 504 161 q 600 235 581 206 q 618 267 611 250 q 631 299 625 283 q 643 351 642 332 q 646 365 646 358 q 646 379 646 372 l 646 400 q 644 418 646 413 q 592 386 638 403 q 485 364 549 371 q 422 360 454 360 q 356 365 390 361 q 229 410 289 374 q 135 513 171 446 q 101 689 99 579 q 139 867 101 797 q 229 972 175 935 q 285 1004 257 992 q 344 1024 313 1017 q 454 1039 408 1038 l 467 1039 q 483 1039 475 1039 q 499 1036 492 1039 q 599 1011 554 1029 q 706 935 664 983 q 775 824 750 886 q 808 689 800 761 q 817 611 815 642 q 821 546 821 579 l 821 471 m 626 647 q 629 689 631 671 q 624 719 626 704 q 618 749 621 733 q 614 763 617 754 q 586 800 593 776 q 585 819 585 806 l 581 824 q 563 822 572 822 q 546 821 554 821 q 486 835 518 821 q 461 851 474 840 q 458 849 461 851 l 458 833 l 458 794 l 458 618 q 440 572 458 593 q 419 558 431 563 q 394 553 407 554 q 370 558 383 553 q 349 572 357 564 q 331 618 331 590 q 331 658 331 631 q 331 717 331 686 q 330 776 331 749 q 329 817 329 804 l 329 825 q 306 796 315 811 q 281 733 286 764 q 279 689 275 703 q 297 590 278 626 q 347 539 315 556 q 417 522 378 522 q 453 523 436 521 q 489 528 471 525 q 522 537 507 532 q 551 547 538 542 q 588 569 579 561 q 614 608 603 588 q 626 647 625 629 z "},"\u0000":{"ha":0,"x_min":0,"x_max":0,"o":""},"\r":{"ha":744,"x_min":0,"x_max":0,"o":""}," ":{"ha":744,"x_min":0,"x_max":0,"o":""},"\"":{"ha":613,"x_min":110,"x_max":461,"o":"m 231 972 l 231 699 l 204 676 l 132 676 l 110 706 l 110 972 l 231 972 m 461 971 l 461 697 l 435 675 l 363 675 l 340 704 l 340 971 l 461 971 z "},",":{"ha":393,"x_min":71,"x_max":279,"o":"m 269 33 q 246 -11 261 14 q 245 -40 246 -11 q 244 -112 244 -69 q 244 -204 244 -154 q 244 -297 244 -254 q 244 -368 244 -339 q 244 -397 244 -397 q 240 -451 263 -425 q 235 -428 238 -454 q 231 -360 233 -401 q 224 -271 228 -319 q 217 -181 221 -222 q 211 -112 214 -140 q 206 -83 208 -83 q 192 -118 199 -99 q 178 -161 185 -137 l 158 -168 l 106 -143 l 97 -122 q 109 -92 104 -107 q 118 -62 114 -78 q 126 -31 122 -47 q 136 3 131 -15 q 89 40 108 15 q 71 97 71 67 q 101 171 71 142 q 175 201 132 201 q 249 171 218 201 q 279 97 279 142 q 269 33 279 54 z "},"-":{"ha":782,"x_min":92,"x_max":665,"o":"m 665 432 l 665 343 l 646 324 l 543 324 q 558 307 550 315 q 572 292 565 299 q 580 253 576 288 q 588 167 583 218 q 595 57 592 115 q 601 -53 599 -1 q 605 -140 603 -104 q 607 -181 607 -176 q 585 -232 608 -208 q 562 -249 576 -243 q 533 -254 547 -254 q 506 -249 519 -254 q 482 -232 492 -243 q 468 -188 475 -226 q 453 -97 461 -150 q 439 17 446 -44 q 424 131 432 78 q 410 223 417 185 q 399 268 404 261 q 343 260 371 260 q 338 229 340 260 q 334 152 336 199 q 331 51 332 106 q 327 -49 329 -3 q 323 -125 325 -94 q 318 -156 321 -156 q 306 -151 311 -154 q 294 -146 300 -149 q 288 -111 292 -144 q 279 -29 283 -78 q 271 76 275 19 q 263 183 267 133 q 256 266 260 232 q 251 303 253 300 q 243 318 249 307 q 240 324 243 321 l 111 324 l 92 344 l 92 433 l 111 454 l 211 454 q 219 449 215 457 q 226 428 222 440 q 233 407 229 417 q 240 399 236 397 q 297 392 269 407 q 301 401 299 390 q 305 424 303 411 q 309 446 307 436 q 314 454 311 456 l 644 454 l 665 432 z "},".":{"ha":356,"x_min":60,"x_max":268,"o":"m 233 6 q 235 -6 235 -1 q 238 -17 236 -11 q 242 -52 240 -21 q 245 -128 244 -83 q 247 -225 246 -174 q 247 -321 247 -276 q 244 -397 246 -365 q 239 -431 242 -428 q 208 -442 226 -443 q 179 -431 190 -442 q 164 -401 165 -417 q 163 -396 163 -400 q 158 -393 160 -394 q 154 -390 157 -392 q 152 -362 153 -390 q 150 -294 151 -335 q 147 -205 149 -253 q 144 -116 146 -157 q 142 -48 143 -75 q 140 -19 140 -21 q 90 10 111 -14 q 60 83 60 39 q 90 157 60 126 q 164 188 121 188 q 238 157 204 188 q 268 83 268 124 q 238 10 268 40 l 233 6 z "},":":{"ha":339,"x_min":46,"x_max":272,"o":"m 272 89 q 242 15 272 44 q 221 -1 231 4 q 213 -15 219 -8 q 202 -23 207 -19 q 193 -31 197 -26 q 188 -35 190 -33 q 157 -81 192 -69 q 126 -76 142 -86 q 106 -51 111 -67 q 113 0 99 -24 q 103 7 107 3 q 94 15 99 11 q 64 89 64 44 q 94 163 64 132 q 168 193 125 193 q 242 163 211 193 q 272 89 272 132 m 186 -36 l 183 -39 l 186 -36 m 101 517 q 69 521 85 511 q 50 546 54 531 q 49 579 46 563 q 64 608 53 596 q 61 629 61 622 q 92 703 61 669 q 165 733 122 733 q 239 703 210 733 q 269 629 269 672 q 239 556 269 586 q 165 525 210 525 q 124 533 142 525 q 101 517 114 521 z "},";":{"ha":393,"x_min":53,"x_max":294,"o":"m 190 208 q 264 178 233 208 q 294 104 294 147 q 286 40 294 63 q 271 10 279 25 q 269 2 269 6 q 268 -6 268 -1 q 259 -31 264 -18 q 249 -54 254 -43 q 243 -72 246 -61 l 243 -79 l 243 -81 l 243 -79 l 243 -81 l 243 -82 q 246 -85 243 -82 q 244 -83 244 -83 q 243 -81 244 -82 q 259 -106 256 -92 q 254 -135 263 -119 q 229 -155 247 -150 q 197 -150 211 -160 q 194 -149 197 -150 q 193 -154 194 -153 l 174 -162 l 121 -136 l 113 -115 q 133 -56 125 -85 q 142 -24 138 -40 q 151 8 146 -8 q 104 47 122 22 q 86 104 86 71 q 117 178 86 147 q 190 208 147 208 m 242 -79 q 240 -78 240 -78 q 242 -81 240 -79 l 242 -79 m 94 507 q 65 519 78 506 q 53 549 53 532 q 64 585 53 569 q 92 611 75 600 q 86 644 86 624 q 117 718 86 688 q 190 749 147 749 q 264 718 233 749 q 294 644 294 688 q 264 571 294 601 q 201 540 238 544 q 185 539 193 539 q 168 539 176 539 q 153 541 161 540 q 139 540 146 542 l 135 540 q 121 516 132 525 q 94 507 110 507 z "},"?":{"ha":838,"x_min":71,"x_max":778,"o":"m 533 29 q 503 -44 533 -14 q 475 -64 489 -58 q 476 -69 476 -65 q 490 -108 483 -89 q 503 -147 496 -128 q 505 -171 507 -158 q 497 -194 503 -183 q 460 -224 486 -214 q 411 -217 435 -231 q 383 -179 389 -204 q 374 -152 378 -165 q 364 -125 369 -139 q 353 -93 358 -107 q 344 -87 349 -90 q 336 -79 340 -83 q 315 -46 319 -65 q 325 19 306 -10 l 326 21 q 325 29 325 24 q 356 103 325 72 q 429 133 386 133 q 503 103 474 133 q 533 29 533 74 m 740 863 q 778 685 778 793 q 767 618 778 649 q 736 565 756 588 q 688 519 718 542 q 658 497 674 508 q 626 472 643 486 q 591 445 607 458 q 561 421 575 432 q 519 368 538 399 q 506 337 513 353 q 497 301 500 321 q 492 258 494 282 q 490 207 490 235 l 479 201 l 369 201 l 354 207 q 345 257 349 235 q 339 299 342 279 q 335 334 336 318 q 333 364 333 350 q 342 415 333 392 q 365 458 350 438 q 401 490 382 474 q 439 522 419 507 q 477 553 458 539 q 514 583 496 568 q 547 612 532 599 q 576 639 563 625 q 608 685 603 665 q 607 731 613 701 q 581 794 600 765 q 556 824 569 810 q 525 850 543 839 q 431 875 489 875 q 342 854 376 875 q 329 846 335 850 q 317 836 324 842 q 322 824 319 832 q 315 776 329 797 q 288 751 306 760 l 289 751 q 283 749 286 750 q 278 746 281 747 l 278 735 q 274 714 276 724 q 269 693 272 704 l 269 675 l 274 658 q 276 635 278 647 q 268 611 274 622 q 231 582 256 589 q 206 580 219 578 q 182 588 193 582 q 153 625 163 600 q 144 685 144 654 l 81 685 l 71 692 q 104 826 76 761 q 174 938 129 889 q 281 1013 219 985 q 425 1040 340 1040 q 477 1035 450 1039 q 535 1024 504 1032 q 594 1003 567 1017 q 650 971 622 990 q 740 863 706 931 z "},"A":{"ha":961,"x_min":-53,"x_max":935,"o":"m 935 0 l 924 -25 l 821 -65 l 803 -60 q 790 -62 796 -61 q 776 -65 783 -62 q 753 -67 765 -68 q 731 -74 740 -67 q 731 -93 732 -83 q 732 -115 731 -96 q 735 -162 733 -135 q 740 -220 738 -189 q 744 -279 743 -251 q 746 -326 746 -307 q 744 -347 746 -344 q 739 -356 742 -351 q 733 -362 736 -360 q 709 -378 722 -374 q 681 -385 696 -383 q 653 -378 667 -385 q 629 -362 639 -372 q 614 -339 617 -350 q 610 -319 613 -337 q 604 -274 607 -300 q 597 -217 601 -247 q 590 -160 593 -186 q 586 -115 588 -133 q 585 -93 585 -96 l 585 -82 q 583 -79 585 -82 q 581 -75 583 -78 q 575 -62 578 -68 q 569 -49 572 -56 q 566 -3 561 -28 q 589 36 571 21 q 628 58 604 54 q 636 60 632 60 q 643 61 640 60 q 660 63 651 63 q 675 65 668 64 q 706 71 690 68 q 736 76 721 74 l 671 225 q 661 199 667 224 q 651 144 656 174 q 640 92 646 115 q 631 69 635 68 l 626 69 l 615 69 q 593 63 604 67 q 571 56 582 60 q 542 43 556 49 q 514 32 529 38 q 460 21 483 22 q 457 19 458 19 q 440 10 451 15 q 414 -1 431 3 q 406 -3 411 -3 q 401 -7 403 -6 q 396 -11 399 -8 q 369 -21 383 -19 q 339 -19 354 -22 q 300 7 315 -12 l 204 -208 l 185 -218 q 183 -221 185 -219 q 163 -241 174 -232 q 142 -260 153 -250 q 119 -272 131 -267 q 97 -283 108 -278 q 100 -330 99 -299 q 101 -397 101 -361 q 101 -463 101 -432 q 100 -510 101 -494 q 90 -546 100 -526 q 84 -553 88 -550 q 78 -561 81 -557 q 26 -582 58 -582 q -1 -577 13 -583 q -26 -561 -15 -571 q -42 -537 -36 -551 q -47 -510 -49 -522 q -46 -460 -46 -493 q -46 -391 -46 -428 q -47 -322 -46 -354 q -50 -272 -49 -289 q -53 -251 -53 -261 q -50 -231 -53 -242 q -24 -189 -43 -204 q -6 -174 -15 -181 q 14 -161 3 -168 q 37 -150 25 -156 q 60 -137 49 -144 q 68 -130 64 -133 q 75 -122 72 -126 q 78 -118 76 -119 q 81 -114 79 -117 l 424 965 l 440 974 l 558 974 l 575 965 l 935 0 m 379 381 l 619 381 l 500 753 l 379 381 z "},"B":{"ha":940,"x_min":28,"x_max":864,"o":"m 814 428 q 864 289 858 363 q 836 179 864 232 q 767 88 811 128 q 750 74 758 81 q 733 61 742 68 l 733 53 q 733 22 733 47 q 731 -40 732 -4 q 728 -116 731 -75 q 724 -192 726 -157 q 718 -253 721 -228 q 713 -281 715 -278 q 689 -296 700 -293 q 661 -301 674 -303 q 640 -304 650 -303 q 618 -307 629 -306 q 596 -289 607 -308 q 574 -240 585 -269 q 551 -177 563 -211 q 529 -114 540 -143 q 508 -67 518 -85 q 486 -51 497 -49 q 474 -75 481 -53 q 463 -130 468 -97 q 451 -200 457 -162 q 439 -270 444 -237 q 427 -326 433 -303 q 415 -350 421 -349 l 374 -362 q 359 -422 367 -379 q 343 -512 351 -464 q 326 -603 335 -561 q 313 -662 318 -646 q 293 -694 306 -683 q 285 -701 289 -697 q 278 -707 282 -704 q 251 -715 265 -714 q 222 -714 236 -717 q 178 -681 192 -707 q 168 -653 171 -669 q 171 -624 165 -636 q 183 -568 176 -610 q 198 -480 190 -526 q 213 -392 206 -433 q 226 -336 221 -351 q 228 -310 228 -333 q 230 -254 229 -287 q 232 -182 231 -221 q 234 -110 233 -143 q 235 -53 235 -76 q 238 -28 236 -31 q 243 -13 240 -21 q 249 1 246 -6 l 147 1 l 126 18 l 126 -43 q 115 -57 121 -46 q 104 -81 110 -68 q 93 -103 99 -93 q 82 -111 88 -112 q 57 -97 68 -107 q 39 -76 46 -87 q 33 -53 35 -71 q 29 -17 31 -36 q 28 21 28 3 q 31 46 29 39 q 65 89 39 74 q 76 116 71 92 q 86 174 81 140 q 97 249 92 208 q 106 324 101 289 q 116 382 111 358 q 126 410 121 406 l 126 1032 l 147 1040 l 549 1040 q 667 1015 617 1040 q 746 950 714 990 q 790 856 775 911 q 804 750 804 806 q 800 679 804 710 q 795 648 799 663 q 786 619 792 633 q 751 568 776 593 q 704 532 735 551 q 718 508 713 522 q 814 428 779 476 m 276 151 l 510 151 q 548 154 529 153 q 583 157 567 156 q 639 175 613 161 q 675 217 660 189 q 688 293 688 243 q 679 357 688 329 q 650 404 671 385 l 642 413 l 507 413 l 438 413 q 428 397 432 413 q 419 358 424 381 q 409 307 414 335 q 399 256 404 279 q 390 216 394 232 q 381 200 385 200 q 378 199 379 200 q 370 194 374 196 q 363 190 367 193 q 341 206 351 182 q 319 262 331 231 q 298 318 308 293 q 276 335 288 343 l 276 151 m 276 596 l 510 596 q 610 639 576 596 q 646 740 646 682 q 645 754 646 746 q 644 774 644 763 q 629 825 643 796 q 589 871 615 851 q 508 893 558 893 l 276 893 l 276 596 z "},"C":{"ha":940,"x_min":71,"x_max":858,"o":"m 853 303 q 856 301 854 301 q 858 299 857 300 q 819 165 850 226 q 738 53 788 99 q 732 49 735 50 q 724 25 732 47 q 704 -29 717 3 q 677 -98 692 -61 q 650 -167 663 -135 q 629 -220 638 -199 q 621 -243 621 -242 q 616 -272 622 -258 q 600 -296 610 -286 q 576 -312 590 -306 q 547 -317 561 -318 q 548 -296 543 -317 q 561 -244 553 -275 q 581 -178 569 -214 q 600 -113 592 -143 q 613 -63 608 -83 q 613 -43 617 -43 q 594 -81 610 -51 q 556 -152 578 -111 q 508 -240 533 -193 q 459 -326 482 -286 q 417 -394 436 -365 q 392 -426 399 -422 q 375 -444 383 -432 q 360 -471 367 -457 q 344 -498 353 -485 q 328 -517 336 -511 q 301 -525 315 -524 q 272 -524 286 -526 q 246 -511 257 -521 q 228 -490 235 -501 q 221 -433 211 -462 q 233 -400 221 -431 q 261 -326 244 -369 q 297 -233 278 -283 q 334 -139 317 -182 q 364 -67 351 -96 q 379 -35 376 -37 q 340 -19 361 -29 q 211 74 272 8 q 156 147 181 106 q 113 238 132 188 q 71 479 72 338 q 73 531 71 504 q 78 586 75 558 q 100 699 85 647 q 146 806 117 757 q 219 897 174 857 q 325 961 263 936 q 392 979 356 972 q 469 986 428 986 q 618 960 553 986 q 736 883 688 931 q 783 832 763 860 q 818 772 803 804 q 857 638 849 710 q 851 635 851 635 q 846 631 849 632 l 654 357 q 632 311 650 329 q 619 288 625 304 q 606 269 614 272 q 599 267 603 268 q 592 264 596 265 q 558 259 575 261 q 525 254 542 257 q 515 245 519 253 q 506 229 510 238 q 497 215 501 221 q 488 210 492 208 q 483 218 485 211 q 478 233 481 225 q 472 247 475 240 q 468 254 469 254 q 435 299 444 268 q 433 328 431 313 q 442 356 435 344 q 449 371 444 361 q 460 391 454 381 q 473 410 467 401 q 486 419 479 418 l 511 424 q 522 449 513 426 q 546 505 532 472 q 576 576 560 538 q 606 647 592 614 q 631 701 621 679 q 643 726 640 724 q 644 728 643 728 q 644 729 644 728 q 638 738 642 733 q 631 747 635 742 q 568 793 607 774 q 469 811 532 814 q 303 725 363 808 q 240 479 242 639 q 261 322 240 386 q 315 213 282 257 q 390 147 350 168 q 471 125 428 128 q 571 143 529 124 q 632 190 610 163 q 653 218 644 204 q 668 247 661 232 q 683 299 679 279 q 694 306 688 306 l 847 306 q 853 303 853 303 z "},"D":{"ha":842,"x_min":46,"x_max":781,"o":"m 775 625 q 777 586 776 603 q 781 558 778 569 q 754 313 781 414 q 683 139 726 207 q 583 36 639 69 l 563 24 q 561 22 563 24 q 543 1 554 11 q 519 -11 532 -8 q 514 -18 518 -14 q 490 -34 506 -28 q 463 -39 475 -40 q 450 -39 456 -39 q 438 -40 444 -39 q 396 -51 419 -42 q 375 -101 388 -56 q 348 -215 363 -147 q 318 -360 333 -282 q 288 -506 303 -437 q 262 -620 274 -574 q 242 -672 250 -667 q 215 -683 229 -682 q 185 -681 200 -683 q 160 -668 171 -678 q 142 -646 149 -658 q 141 -596 139 -642 q 148 -483 143 -550 q 160 -337 153 -415 q 173 -192 167 -260 q 184 -78 179 -125 q 190 -28 189 -32 q 207 1 196 -11 l 67 1 l 46 18 l 46 1032 l 67 1040 l 465 1040 q 603 1010 550 1038 q 651 976 629 994 q 690 933 674 957 q 720 885 707 910 q 742 832 733 860 q 756 777 750 804 q 765 722 763 750 q 772 672 769 696 q 775 625 774 647 m 596 390 q 606 469 603 428 q 608 554 608 510 q 606 619 608 588 q 599 683 604 651 q 569 792 590 743 q 515 865 550 839 l 513 868 q 509 865 510 867 q 506 863 508 864 q 495 813 501 858 q 481 701 489 768 q 465 558 474 635 q 449 414 457 481 q 435 302 442 347 q 425 253 429 257 q 372 231 403 233 q 344 237 357 231 q 321 253 332 243 q 317 301 318 256 q 318 414 317 347 q 322 558 319 481 q 326 703 324 636 q 331 817 329 771 q 332 868 332 864 l 331 868 q 317 836 325 868 q 301 756 310 804 q 283 653 292 708 q 265 552 274 599 q 250 476 257 506 q 239 450 243 446 l 235 454 l 194 894 l 194 151 l 428 151 q 501 183 467 153 q 558 264 536 214 q 596 390 583 318 z "},"E":{"ha":747,"x_min":67,"x_max":682,"o":"m 390 697 q 385 731 388 703 q 382 791 383 758 q 381 852 381 824 q 381 888 381 881 l 217 888 l 217 642 l 625 642 l 633 628 l 633 540 q 636 525 636 532 q 633 508 636 519 l 633 506 q 632 501 633 503 q 629 496 632 499 q 628 493 629 494 q 622 483 625 488 q 614 474 618 478 l 610 469 q 604 463 608 467 q 595 433 600 458 q 585 380 590 408 q 573 328 579 351 q 561 304 567 306 q 524 310 539 301 q 506 287 515 307 q 489 242 497 267 q 472 195 481 217 q 456 171 464 174 q 427 169 442 167 q 400 179 413 172 q 392 203 396 181 q 384 257 388 225 q 378 326 381 289 q 374 396 376 363 q 369 452 371 429 q 365 479 367 475 q 365 483 365 482 q 364 488 364 485 l 217 488 l 217 154 l 672 154 l 682 140 l 682 19 l 672 1 l 665 1 q 659 -26 665 -12 q 644 -49 653 -39 q 620 -65 633 -58 q 592 -69 607 -71 l 554 -69 q 539 -68 543 -69 q 528 -76 533 -72 q 517 -83 522 -79 l 467 -117 q 447 -145 458 -122 q 425 -200 436 -168 q 401 -268 414 -232 q 378 -336 389 -304 q 356 -391 367 -368 q 336 -419 344 -414 q 309 -428 324 -428 q 281 -426 294 -429 q 254 -414 265 -424 q 236 -393 243 -404 q 227 -366 229 -382 q 229 -336 225 -350 q 263 -293 236 -308 q 279 -265 269 -287 q 299 -212 289 -243 q 321 -145 310 -181 q 342 -79 332 -110 q 363 -26 353 -49 q 379 1 372 -4 l 88 1 l 67 18 l 67 1033 l 88 1042 l 672 1042 l 682 1029 l 682 906 l 672 888 l 654 888 q 649 880 651 883 q 644 874 647 876 q 592 853 624 853 q 585 851 590 851 q 582 851 583 851 q 578 850 581 850 q 567 825 572 849 q 556 774 561 801 q 546 722 551 746 q 536 696 540 697 q 513 684 524 690 q 490 671 501 678 q 463 663 478 664 q 435 664 449 661 q 408 676 419 667 q 390 697 397 686 z "},"F":{"ha":746,"x_min":49,"x_max":703,"o":"m 703 1028 l 703 906 l 694 888 l 656 888 q 632 865 647 872 q 626 844 629 864 q 621 802 624 825 q 615 760 618 779 q 610 742 613 742 q 588 731 601 735 q 576 746 582 728 q 563 786 569 764 q 551 828 557 808 q 540 850 546 847 q 528 856 531 853 q 512 826 519 854 q 497 766 504 799 q 483 706 490 733 q 468 675 475 678 q 456 669 461 672 q 443 664 450 667 q 407 653 425 653 q 388 656 393 656 q 361 668 372 658 q 343 690 350 678 q 338 724 340 694 q 335 788 336 753 q 334 853 335 822 q 333 888 333 883 l 238 888 l 238 642 l 646 642 l 656 628 l 656 506 q 655 503 656 504 q 654 501 654 503 q 651 496 651 496 q 648 492 649 493 q 646 488 647 490 l 593 488 q 578 482 589 485 q 569 449 574 481 q 560 381 564 418 q 551 315 556 344 q 542 285 546 285 q 508 271 529 275 q 493 260 501 265 q 476 249 485 256 q 450 240 465 240 q 419 242 435 239 q 394 254 406 244 q 376 275 383 264 q 374 292 375 276 q 373 331 374 308 q 372 381 372 354 q 370 431 371 407 q 369 470 369 454 q 368 488 368 486 l 238 488 l 238 47 q 242 24 244 36 q 236 -6 243 11 q 232 -30 235 -7 q 225 -85 229 -53 q 216 -154 221 -117 q 207 -224 211 -192 q 199 -278 203 -256 q 193 -301 194 -300 q 181 -310 186 -306 q 169 -321 176 -315 q 138 -339 156 -335 q 128 -341 132 -340 q 118 -342 124 -342 q 90 -337 103 -343 q 65 -321 76 -331 q 56 -310 60 -315 q 50 -297 53 -304 q 50 -273 49 -296 q 54 -217 51 -250 q 60 -147 57 -185 q 65 -77 63 -110 q 70 -22 68 -44 q 72 4 72 1 q 78 32 72 21 q 89 50 82 43 l 89 1032 l 110 1040 l 694 1040 l 703 1028 z "},"G":{"ha":906,"x_min":40,"x_max":826,"o":"m 826 526 l 826 10 q 819 6 825 8 q 810 1 811 1 l 688 1 l 675 10 l 674 75 q 646 56 660 65 q 617 40 632 47 q 614 10 615 38 q 610 -51 613 -18 q 607 -111 608 -83 q 604 -140 606 -139 q 580 -156 593 -151 q 551 -162 567 -161 q 537 -137 544 -162 q 522 -82 529 -112 q 506 -26 514 -51 q 492 -1 499 -1 q 485 -5 489 -4 q 479 -8 482 -6 q 465 -15 472 -11 q 449 -21 457 -18 q 433 -47 440 -25 q 419 -101 426 -69 q 403 -171 411 -133 q 389 -241 396 -208 q 375 -297 382 -274 q 361 -326 368 -321 q 334 -335 350 -335 q 304 -333 318 -336 q 279 -321 290 -331 q 261 -300 268 -311 q 257 -272 258 -296 q 254 -216 256 -249 q 252 -145 253 -183 q 251 -74 251 -107 q 251 -17 251 -40 q 253 11 251 7 q 267 36 257 26 q 276 47 272 44 q 179 125 228 75 q 81 289 121 188 q 51 399 61 339 q 40 531 42 460 q 42 589 40 556 q 46 650 43 622 q 54 707 49 679 q 69 763 60 735 q 115 869 86 821 q 188 961 146 922 q 293 1025 231 1000 q 360 1043 325 1036 q 438 1050 396 1050 q 588 1024 521 1050 q 651 990 621 1008 q 706 947 681 971 q 788 836 756 899 q 825 701 819 771 l 815 694 l 764 694 q 763 676 764 692 q 760 640 761 660 q 758 604 760 621 q 756 586 757 588 q 737 565 749 575 q 713 553 725 556 q 683 550 700 549 q 656 560 667 551 q 642 570 649 565 q 631 582 636 575 q 625 602 628 585 q 620 640 622 619 q 615 677 618 660 q 611 699 613 694 q 607 704 608 701 q 604 710 606 707 q 592 711 597 711 q 582 714 588 711 q 567 703 575 715 q 553 676 560 690 q 542 650 547 661 q 533 646 538 639 q 529 644 531 649 q 527 633 528 639 q 525 622 526 626 q 524 619 524 617 q 519 614 521 621 q 516 597 518 607 q 512 580 514 588 q 508 575 510 572 q 497 587 501 581 q 486 600 492 593 q 474 603 483 604 q 464 607 465 603 q 463 626 463 608 q 465 670 464 644 q 468 726 467 696 q 470 781 469 756 q 472 825 471 807 q 472 844 472 843 q 471 859 471 851 q 471 874 471 867 q 456 875 464 875 q 438 875 447 875 q 271 789 332 872 q 225 678 240 746 q 210 531 210 611 q 231 374 210 438 q 285 264 251 308 q 358 199 318 219 q 440 176 399 178 q 558 203 510 175 q 600 233 582 218 q 631 268 618 249 q 665 339 654 301 q 672 367 669 356 q 675 386 675 379 l 396 386 q 392 393 392 388 q 386 404 386 399 l 386 526 l 396 539 l 814 539 l 826 526 z "},"H":{"ha":911,"x_min":32,"x_max":832,"o":"m 831 176 q 831 147 832 161 q 828 117 831 132 l 828 15 l 806 -1 l 749 -329 q 736 -337 742 -332 q 724 -343 731 -343 q 695 -338 708 -344 q 671 -322 682 -332 q 656 -298 661 -312 q 650 -269 650 -283 q 651 -235 650 -265 q 653 -163 651 -206 q 656 -73 654 -121 q 660 17 657 -25 q 665 88 663 58 q 671 119 668 117 l 675 124 q 676 126 676 125 q 678 128 676 126 l 678 200 q 672 175 676 204 q 659 100 667 146 q 643 1 651 54 q 627 -99 635 -53 q 614 -174 619 -144 q 607 -199 608 -203 q 593 -186 603 -181 q 574 -202 583 -192 q 558 -219 565 -212 q 551 -206 551 -225 q 558 -145 551 -197 q 576 -19 565 -93 q 601 140 588 56 q 625 299 614 225 q 644 425 636 374 q 653 485 651 476 l 261 485 l 261 3 l 239 -12 l 233 -12 q 231 -42 232 -15 q 228 -106 229 -68 q 225 -187 226 -143 q 222 -268 224 -231 q 217 -331 219 -306 q 214 -360 215 -357 q 188 -381 204 -371 q 157 -392 171 -387 q 139 -394 147 -393 q 121 -394 131 -394 q 104 -393 113 -394 q 86 -390 96 -392 q 61 -378 72 -387 q 43 -357 50 -368 q 38 -325 40 -353 q 35 -257 36 -297 q 33 -171 33 -217 q 32 -85 32 -125 q 33 -16 32 -44 q 35 17 33 13 q 48 42 38 31 q 69 61 58 54 q 96 69 82 69 l 96 92 q 111 138 96 118 l 111 1033 l 132 1042 l 240 1042 l 261 1033 l 261 639 l 678 639 l 678 1031 l 701 1042 l 807 1042 l 828 1032 l 828 199 q 828 187 828 192 q 831 176 829 182 z "},"I":{"ha":644,"x_min":44,"x_max":578,"o":"m 392 886 l 392 156 l 558 156 l 578 135 l 578 21 l 558 1 q 556 -23 557 0 q 554 -78 556 -46 q 551 -149 553 -111 q 549 -221 550 -187 q 547 -277 549 -254 q 546 -301 546 -300 q 533 -344 539 -336 q 520 -347 526 -351 q 507 -332 514 -342 q 493 -322 500 -322 q 473 -301 483 -322 q 452 -247 463 -279 q 431 -178 442 -215 q 410 -109 421 -140 q 390 -57 400 -78 q 369 -37 379 -36 q 308 -54 342 -43 q 297 -88 304 -56 q 280 -169 289 -121 q 260 -273 271 -217 q 241 -378 250 -329 q 224 -459 232 -426 q 214 -494 217 -492 q 183 -524 199 -506 q 181 -526 182 -525 q 179 -529 181 -528 q 136 -564 165 -553 q 79 -556 107 -572 q 58 -537 68 -549 q 46 -512 49 -525 q 47 -473 44 -508 q 56 -386 50 -437 q 68 -276 61 -335 q 82 -166 75 -217 q 94 -81 89 -115 q 103 -42 100 -46 q 136 1 115 -21 l 53 1 l 44 21 l 44 135 l 51 156 l 240 156 l 240 886 l 53 886 l 44 907 l 44 1021 l 51 1042 l 558 1042 l 578 1021 l 578 907 l 558 886 l 392 886 z "},"J":{"ha":657,"x_min":29,"x_max":599,"o":"m 599 1032 l 596 236 q 572 146 592 181 q 526 81 554 108 q 497 56 513 67 q 467 38 482 46 q 406 13 436 21 q 353 0 375 4 q 333 -2 342 -1 q 319 -3 325 -3 q 218 21 268 -3 q 196 33 207 26 q 174 47 185 40 q 172 46 174 46 q 167 11 169 42 q 162 -62 165 -19 q 154 -155 158 -106 q 147 -246 150 -204 q 138 -316 143 -287 q 129 -346 133 -344 q 72 -337 100 -354 q 51 -319 60 -331 q 39 -294 42 -307 q 38 -265 38 -290 q 38 -203 38 -239 q 40 -126 39 -167 q 44 -49 42 -85 q 48 13 46 -12 q 53 42 50 38 q 58 66 56 47 q 62 106 60 85 q 66 144 64 126 q 71 169 68 163 q 74 176 74 175 q 72 179 72 178 q 71 183 72 181 q 68 190 69 186 q 65 197 67 193 q 48 238 53 217 q 38 282 43 260 q 50 346 29 317 q 108 375 72 375 q 167 357 140 375 q 210 311 194 339 q 219 292 215 301 q 225 271 222 282 q 232 264 228 268 q 235 257 236 260 q 224 200 224 229 q 228 147 224 171 q 237 106 232 122 q 243 86 242 89 q 242 83 243 86 q 275 56 257 65 q 286 68 281 53 q 297 103 292 83 q 308 140 303 122 q 319 157 314 157 q 357 163 339 157 q 396 181 378 169 q 428 207 417 192 q 447 240 443 222 l 447 1033 l 469 1042 l 578 1042 l 599 1032 z "},"K":{"ha":900,"x_min":54,"x_max":856,"o":"m 856 79 l 818 43 q 819 38 818 40 q 819 33 819 36 q 790 -35 817 -8 q 778 -65 785 -40 q 765 -122 772 -89 q 749 -193 757 -156 q 733 -262 742 -231 q 717 -316 725 -294 q 703 -339 710 -337 q 670 -347 686 -343 q 638 -354 654 -350 q 581 -347 608 -360 q 547 -303 557 -333 q 544 -275 546 -299 q 540 -217 542 -251 q 538 -145 538 -183 q 540 -72 538 -107 q 547 -12 542 -37 q 564 19 553 13 q 578 31 569 24 q 595 47 588 39 q 607 57 603 54 q 608 54 611 60 q 603 20 604 46 q 601 -38 601 -6 q 605 -106 601 -71 q 613 -167 608 -140 q 624 -208 617 -194 q 639 -214 631 -222 q 633 -206 636 -211 q 633 -183 633 -204 q 631 -129 632 -161 q 631 -60 631 -97 q 630 8 631 -24 q 628 62 629 40 q 628 85 628 83 q 624 88 626 85 q 603 126 607 104 q 600 165 597 142 l 307 485 l 265 444 l 265 21 l 244 4 l 243 4 q 241 -5 242 0 q 238 -14 240 -10 q 231 -49 235 -22 q 223 -111 228 -75 q 213 -188 218 -147 q 203 -265 208 -229 q 191 -327 197 -301 q 179 -358 185 -353 q 128 -379 158 -379 q 99 -374 113 -381 q 75 -358 86 -368 q 60 -334 65 -349 q 54 -306 54 -319 q 56 -277 54 -301 q 59 -219 57 -253 q 64 -146 61 -185 q 69 -74 67 -107 q 76 -17 72 -40 q 82 10 79 7 l 90 18 q 97 31 96 26 q 101 46 101 39 q 101 65 104 57 q 104 88 100 76 q 115 108 108 99 l 115 1035 l 136 1043 l 244 1043 l 265 1035 l 265 657 l 632 1033 l 671 1033 l 763 978 l 763 949 l 419 600 l 856 107 l 856 79 z "},"L":{"ha":831,"x_min":60,"x_max":796,"o":"m 796 115 l 796 21 l 776 1 l 713 -275 q 708 -276 713 -282 q 704 -278 704 -271 q 699 -264 704 -281 q 685 -221 693 -247 q 667 -164 676 -194 q 649 -107 657 -133 q 635 -65 640 -81 q 629 -50 629 -49 q 633 -69 632 -60 q 638 -89 635 -79 q 641 -125 639 -94 q 646 -199 643 -156 q 651 -292 649 -242 q 653 -385 653 -342 q 654 -458 654 -428 q 651 -493 654 -489 q 607 -526 638 -517 q 578 -528 594 -531 q 551 -519 563 -526 q 517 -475 526 -504 q 514 -443 517 -472 q 508 -372 511 -414 q 502 -282 506 -331 q 496 -192 499 -233 q 490 -121 493 -150 q 488 -87 488 -92 q 481 -102 485 -89 q 475 -131 478 -115 q 469 -158 472 -146 q 461 -171 465 -171 q 427 -165 443 -172 q 400 -143 411 -157 q 387 -132 393 -144 q 374 -103 381 -119 q 361 -73 368 -87 q 349 -56 354 -58 q 317 -17 325 -43 l 315 -17 q 302 -47 308 -17 q 289 -114 296 -78 q 276 -181 282 -150 q 263 -211 269 -211 l 250 -211 q 249 -216 249 -214 q 247 -221 249 -218 q 242 -226 246 -225 q 235 -226 239 -226 q 226 -224 231 -225 q 219 -228 222 -224 q 212 -233 215 -231 q 204 -239 208 -236 q 177 -248 192 -247 q 147 -246 163 -249 q 123 -233 135 -243 q 104 -212 111 -224 q 100 -176 101 -208 q 99 -107 99 -144 q 99 -37 99 -69 q 100 1 99 -4 l 79 1 l 60 21 l 60 1021 l 81 1040 l 194 1040 l 213 1021 l 213 136 l 776 136 l 796 115 z "},"M":{"ha":1308,"x_min":29,"x_max":1281,"o":"m 1281 69 l 1271 44 l 1167 4 l 1142 18 l 846 811 l 736 8 q 742 -62 750 -37 q 715 -86 735 -86 q 683 -105 696 -86 q 659 -149 669 -124 q 638 -201 649 -175 q 614 -240 628 -226 q 563 -262 594 -260 q 534 -256 547 -262 q 510 -240 521 -250 q 494 -217 499 -231 q 489 -189 489 -203 q 510 -136 489 -160 q 520 -96 515 -132 q 529 -8 525 -60 q 538 103 533 43 q 547 214 543 163 q 556 301 551 265 q 565 343 560 338 q 554 363 558 353 q 559 364 551 367 q 576 356 567 361 q 595 347 586 350 q 604 349 604 344 q 598 365 606 353 q 581 392 590 378 q 565 417 572 406 q 561 433 558 429 l 464 808 l 168 11 l 143 3 l 39 43 l 29 68 l 389 1033 l 404 1042 l 524 1042 l 540 1033 l 654 688 l 769 1036 l 786 1044 l 906 1044 l 921 1035 l 1281 69 z "},"N":{"ha":829,"x_min":54,"x_max":764,"o":"m 764 1033 l 764 8 l 749 0 l 728 0 q 728 -40 728 -3 q 728 -130 728 -76 q 728 -247 728 -183 q 728 -363 728 -310 q 727 -453 728 -417 q 726 -493 726 -490 q 714 -518 724 -507 q 693 -536 704 -529 q 665 -546 681 -544 q 636 -544 649 -547 q 592 -510 607 -535 q 581 -458 586 -501 q 572 -353 576 -414 q 562 -223 567 -292 q 552 -93 557 -154 q 542 11 547 -32 q 532 64 536 54 q 508 108 519 86 q 482 150 497 131 q 471 163 474 158 q 469 134 469 163 q 467 61 468 106 q 465 -34 465 17 q 463 -129 464 -85 q 460 -203 461 -174 q 458 -231 460 -232 q 442 -212 450 -226 q 426 -190 435 -197 q 426 -162 426 -190 q 425 -91 425 -133 q 424 1 425 -49 q 424 94 424 51 q 424 165 424 136 q 424 193 424 193 q 410 211 414 203 q 399 238 401 225 q 396 252 396 244 q 394 268 396 260 q 393 271 393 269 q 392 275 393 272 q 392 283 389 281 q 401 289 396 286 q 408 294 406 292 q 408 303 411 297 q 397 304 406 308 q 377 295 388 300 q 358 287 367 290 q 347 289 349 283 q 344 305 344 297 q 342 321 343 313 q 340 336 340 326 q 344 350 342 346 q 351 363 346 354 q 354 379 353 364 q 357 413 356 394 q 360 445 358 431 q 363 463 361 460 l 204 747 l 204 18 l 183 0 l 75 0 l 54 18 l 54 1032 l 75 1042 l 183 1042 l 204 1032 l 204 1029 l 207 1029 l 615 296 l 615 1033 l 636 1042 l 743 1042 l 764 1033 z "},"O":{"ha":924,"x_min":49,"x_max":881,"o":"m 772 897 q 881 521 881 749 q 774 144 881 293 q 465 -6 665 -6 q 447 -6 456 -6 q 431 -4 439 -6 q 428 -9 429 -7 q 425 -14 426 -11 q 422 -55 425 -15 q 416 -153 419 -94 q 408 -281 413 -212 q 401 -408 404 -349 q 395 -507 397 -467 q 393 -549 393 -547 q 380 -574 390 -562 q 358 -592 369 -585 q 331 -601 346 -600 q 301 -600 317 -603 q 277 -587 289 -597 q 258 -565 265 -576 q 249 -539 251 -554 q 250 -496 249 -536 q 255 -397 251 -456 q 262 -268 258 -337 q 269 -140 265 -199 q 274 -40 272 -81 q 278 3 276 0 q 286 33 279 18 q 157 144 213 68 q 49 521 49 292 q 157 899 49 749 q 465 1047 265 1047 q 772 897 665 1047 m 218 532 q 275 254 218 368 q 386 151 311 179 q 394 135 390 153 q 401 95 397 117 q 408 55 404 74 q 417 39 413 36 q 434 67 425 43 q 453 118 443 90 q 472 169 463 146 q 492 194 482 192 q 504 198 499 197 q 517 201 510 199 q 528 225 521 213 q 535 218 531 231 q 542 185 539 206 q 550 138 546 164 q 558 91 554 113 q 567 56 563 69 q 576 46 571 42 q 584 67 581 47 q 591 113 588 86 q 599 172 594 140 q 607 230 603 203 q 615 275 611 257 q 622 294 618 293 l 622 304 l 622 356 q 626 368 622 368 q 635 365 631 368 q 644 363 640 363 q 649 375 649 363 q 646 385 649 382 q 641 388 643 388 q 639 390 639 389 q 643 397 639 392 q 655 424 649 403 q 667 470 661 446 q 681 514 674 494 q 696 533 689 533 q 719 529 707 533 q 658 792 717 690 q 464 896 599 899 q 274 793 331 892 q 218 532 218 693 z "},"P":{"ha":765,"x_min":54,"x_max":732,"o":"m 718 858 q 728 806 725 832 q 732 753 732 779 q 646 519 719 593 q 624 501 635 510 q 600 486 613 493 q 603 483 601 483 q 607 479 604 482 q 615 446 611 476 q 624 371 619 415 q 632 276 628 326 q 639 180 636 225 q 644 103 642 135 q 646 68 646 72 q 640 40 646 53 q 624 15 633 26 q 600 -1 614 4 q 572 -6 586 -6 q 519 15 544 -6 q 518 17 519 15 q 513 46 515 18 q 506 115 510 74 q 497 205 501 157 q 489 294 493 253 q 481 363 485 335 q 475 392 478 390 q 458 397 467 394 q 442 401 450 399 l 411 401 q 402 374 407 400 q 393 315 397 347 q 384 258 389 283 q 375 233 379 232 q 343 253 354 240 q 338 285 340 256 q 333 349 335 314 q 329 413 331 383 q 326 447 328 443 l 204 447 l 204 18 l 178 1 l 75 1 l 54 18 l 54 1035 l 75 1043 l 476 1043 q 593 1018 544 1043 q 674 951 642 993 q 718 858 703 911 m 204 599 l 438 599 q 438 600 438 600 q 439 601 439 600 q 443 614 440 608 q 449 626 446 619 q 453 626 450 629 q 460 619 457 624 q 467 613 464 615 q 472 613 469 610 q 478 601 475 615 q 486 565 482 588 q 494 517 490 543 q 503 468 499 490 q 511 431 507 446 q 518 419 515 417 q 522 442 521 421 q 523 494 522 464 q 524 561 524 525 q 524 628 524 597 q 526 680 525 658 q 529 704 526 701 q 532 710 531 707 q 536 715 533 713 q 537 719 536 718 q 538 722 538 721 l 538 728 q 526 738 532 733 q 515 746 521 742 q 503 746 508 753 q 492 730 497 739 q 482 715 486 721 q 474 718 478 710 q 470 744 471 724 q 469 788 469 765 q 469 831 469 811 q 469 858 469 851 q 469 893 468 875 q 453 895 461 894 q 436 896 444 896 l 204 896 l 204 599 z "},"Q":{"ha":972,"x_min":39,"x_max":918,"o":"m 918 135 q 907 81 918 103 q 867 47 896 58 q 863 67 865 47 q 860 118 861 88 q 856 184 858 149 q 853 250 854 219 q 849 301 851 281 q 846 322 847 322 q 783 181 822 244 l 847 118 l 847 90 l 829 71 q 831 68 829 69 q 834 56 833 61 q 838 43 835 51 l 838 40 q 839 14 838 35 q 842 -31 840 -7 q 844 -76 843 -56 q 847 -101 846 -97 q 850 -128 849 -104 q 853 -186 851 -151 q 855 -260 854 -221 q 856 -335 856 -300 q 857 -394 857 -369 q 857 -421 857 -418 q 856 -431 857 -426 q 856 -440 856 -435 q 843 -465 853 -454 q 821 -485 833 -476 q 794 -493 810 -492 q 764 -492 778 -494 q 740 -479 753 -489 q 721 -458 726 -469 q 709 -433 714 -446 q 700 -407 704 -419 q 690 -375 694 -406 q 682 -299 686 -344 q 674 -200 678 -253 q 666 -101 669 -147 q 660 -22 663 -54 q 654 15 657 11 q 643 42 647 25 q 456 -1 563 -1 q 147 149 256 -1 q 39 525 39 296 q 147 903 39 753 q 456 1051 254 1051 q 763 901 656 1051 q 868 597 853 779 q 877 547 872 582 q 886 465 882 511 q 894 369 890 419 q 903 272 899 318 q 910 190 907 225 q 918 139 914 154 l 918 135 m 458 142 q 575 174 524 140 l 533 215 l 425 324 l 532 431 l 628 336 l 668 296 q 710 518 710 363 q 708 577 710 549 q 703 632 706 606 q 688 673 696 653 q 672 714 681 693 q 664 731 668 722 q 654 747 660 739 q 651 751 651 750 q 647 754 650 753 q 633 762 640 758 q 619 769 626 765 q 593 790 604 779 q 578 766 586 792 q 564 701 571 740 q 550 617 557 663 q 536 533 543 572 q 522 469 529 494 q 508 444 515 443 q 481 460 493 447 q 461 488 468 472 q 460 517 460 489 q 459 588 460 546 q 458 678 458 629 q 456 768 457 726 q 456 838 456 810 q 456 868 456 867 q 440 867 447 868 q 424 865 432 867 q 353 868 390 861 q 342 872 344 871 q 265 797 293 847 q 210 535 210 700 q 265 258 210 369 q 458 142 321 144 z "},"R":{"ha":796,"x_min":65,"x_max":743,"o":"m 676 546 q 524 456 622 475 l 738 108 l 738 79 l 633 4 l 606 4 l 526 68 q 521 30 524 63 q 514 -40 518 -3 q 506 -110 510 -78 q 497 -144 501 -142 q 470 -153 485 -151 q 440 -151 456 -154 q 416 -139 428 -149 q 397 -118 404 -129 q 389 -61 382 -93 q 390 -37 389 -58 q 391 17 390 -15 q 392 84 392 49 q 394 151 393 119 q 394 205 394 183 q 396 229 394 226 q 398 256 397 243 q 397 283 399 269 q 395 292 396 288 q 392 301 394 297 q 389 306 390 304 q 386 311 388 308 q 370 328 379 321 q 354 344 361 336 q 327 387 339 364 q 317 436 315 410 q 318 449 317 444 l 215 449 l 215 18 l 190 1 l 86 1 l 65 18 l 65 1035 l 86 1043 l 488 1043 q 604 1018 556 1043 q 685 951 653 993 q 729 858 714 911 q 743 753 743 808 q 676 546 731 619 m 215 599 l 433 599 q 440 589 436 603 q 447 551 443 575 q 454 500 450 528 q 462 449 458 472 q 469 411 465 425 q 475 401 472 397 q 482 426 479 408 q 488 463 485 443 q 494 499 490 482 q 504 521 497 515 q 512 557 508 525 q 519 627 515 589 q 527 697 524 665 q 533 733 531 729 l 538 738 q 522 751 531 744 q 507 764 514 757 q 499 764 503 768 q 491 754 494 760 q 484 746 488 749 q 478 747 481 743 q 471 769 474 754 q 466 800 468 783 q 463 832 464 817 q 460 856 461 847 q 462 876 458 867 q 471 894 465 885 q 460 895 465 894 q 447 896 454 896 l 215 896 l 215 599 z "},"S":{"ha":844,"x_min":60,"x_max":808,"o":"m 671 525 q 760 425 726 485 q 792 292 792 368 q 685 65 792 146 q 436 -15 579 -14 q 436 -47 436 -17 q 436 -122 436 -78 q 436 -218 436 -167 q 436 -314 436 -269 q 435 -389 436 -358 q 435 -422 435 -419 q 422 -447 432 -435 q 400 -465 411 -458 q 344 -474 376 -481 q 340 -472 342 -472 q 336 -471 339 -472 q 324 -466 329 -468 q 313 -461 318 -464 q 289 -440 299 -451 q 281 -403 285 -436 q 275 -324 278 -371 q 269 -224 272 -278 q 265 -124 267 -171 q 260 -44 263 -76 q 257 -6 258 -11 l 253 7 q 163 56 204 22 q 63 336 63 176 l 74 342 l 207 375 l 219 368 q 228 324 222 350 q 281 320 256 331 q 321 286 306 310 q 333 235 335 260 q 332 207 333 228 q 329 163 331 186 q 326 118 328 139 q 322 92 324 97 q 329 90 328 92 q 339 75 335 89 q 347 44 343 61 q 353 13 350 28 q 360 -6 356 -3 q 385 -37 376 -18 q 392 -10 389 -37 q 400 50 396 17 q 409 111 404 83 q 418 139 414 139 q 613 269 565 160 q 568 388 622 333 q 479 450 514 440 q 442 462 461 456 q 400 476 422 468 q 353 492 379 483 q 296 510 328 501 q 235 533 264 519 q 181 565 207 547 q 93 643 124 604 q 60 743 60 682 q 163 978 60 900 q 417 1054 265 1054 q 697 944 581 1050 q 738 900 721 921 q 764 854 754 876 q 782 804 775 833 q 787 775 785 790 q 792 743 789 760 l 782 738 l 769 733 q 772 691 765 721 q 788 629 779 661 q 803 569 797 597 q 799 532 808 542 q 774 516 788 521 q 746 510 761 511 q 718 515 731 508 q 694 532 706 521 q 678 556 683 542 q 672 583 672 569 q 660 615 672 590 q 634 667 647 640 q 611 718 621 694 q 607 746 601 742 q 608 748 608 747 q 610 750 608 749 q 608 758 608 754 q 607 765 608 763 q 603 776 604 771 q 600 786 603 781 q 567 770 583 793 q 535 718 551 747 q 503 664 519 689 q 469 642 488 639 q 444 655 456 644 q 426 676 433 665 q 419 716 422 682 q 413 790 415 750 q 408 865 410 831 q 408 907 407 900 q 281 851 319 892 q 250 744 238 808 q 307 681 268 696 q 378 651 346 661 q 461 626 411 640 q 511 610 486 619 q 563 590 536 601 q 615 563 589 579 q 671 525 642 546 z "},"T":{"ha":926,"x_min":60,"x_max":872,"o":"m 872 910 l 864 900 q 864 860 868 881 q 859 836 861 849 q 854 811 857 824 q 853 757 854 808 q 853 630 853 706 q 853 467 853 554 q 853 303 853 379 q 853 176 853 228 q 853 122 853 125 q 831 69 851 92 q 779 49 811 49 q 751 53 765 47 q 726 69 738 60 q 710 94 717 79 q 706 122 704 108 q 706 181 706 128 q 707 313 707 235 q 707 480 707 390 q 708 647 707 569 q 709 778 708 725 q 711 838 710 832 q 708 839 710 839 q 706 842 707 842 q 703 846 704 843 q 694 810 699 844 q 685 724 689 775 q 676 614 681 674 q 667 502 671 554 q 660 415 664 450 q 656 375 657 379 q 638 347 646 351 q 623 347 631 343 q 609 358 615 351 q 594 365 603 365 q 590 399 592 365 q 587 483 589 432 q 583 592 585 533 q 578 700 581 650 q 574 783 576 750 q 571 817 572 817 q 564 812 568 814 q 557 807 560 810 q 547 803 551 804 q 538 800 543 801 l 538 3 l 518 -17 l 503 -17 q 497 -27 500 -22 q 492 -37 494 -32 q 483 -77 488 -43 q 474 -159 479 -111 q 463 -262 468 -207 q 451 -364 457 -317 q 438 -443 444 -411 q 425 -476 432 -475 q 375 -476 400 -483 q 361 -472 369 -475 q 325 -462 344 -472 q 317 -428 321 -460 q 311 -349 314 -396 q 306 -249 308 -303 q 301 -147 303 -194 q 297 -65 299 -99 q 294 -28 296 -32 q 301 29 285 1 q 346 63 315 53 q 357 65 351 65 q 367 106 357 88 q 385 126 372 117 l 385 889 l 69 889 l 60 910 l 60 1021 l 68 1042 l 854 1042 l 872 1021 l 872 910 z "},"U":{"ha":903,"x_min":69,"x_max":833,"o":"m 825 364 q 806 207 833 278 q 772 144 792 172 q 729 92 753 115 q 614 18 681 46 q 583 8 599 13 q 553 0 568 4 l 553 -3 q 557 -29 557 -15 q 560 -69 557 -31 q 566 -166 563 -108 q 574 -290 569 -224 q 581 -413 578 -356 q 587 -510 585 -471 q 589 -550 589 -549 q 588 -554 589 -553 q 588 -558 588 -556 q 582 -569 585 -564 q 576 -582 579 -575 q 549 -612 565 -599 q 511 -629 532 -625 q 454 -622 482 -637 q 433 -603 442 -615 q 421 -579 425 -592 q 419 -547 417 -567 q 409 -503 415 -544 q 396 -403 403 -462 q 382 -274 389 -343 q 369 -144 375 -204 q 358 -42 363 -85 q 354 6 354 0 q 345 8 350 7 q 336 11 340 8 q 210 78 267 32 q 115 196 154 124 q 71 367 76 271 l 69 1033 l 90 1042 l 197 1042 l 218 1033 l 218 365 q 223 326 219 346 q 233 288 226 307 q 235 281 235 285 q 238 274 236 276 q 286 264 263 278 q 297 235 292 261 q 308 177 303 208 q 315 117 313 146 q 321 83 318 89 q 322 61 322 76 q 342 57 332 58 q 361 53 351 56 q 377 70 369 50 q 393 114 385 90 q 410 157 401 138 q 426 175 418 176 q 476 146 458 165 q 500 138 489 147 q 522 119 511 129 q 542 101 532 108 q 560 96 551 93 q 622 138 599 110 q 633 163 628 144 q 643 203 639 182 q 651 243 647 224 q 658 272 656 263 q 669 314 664 292 q 678 361 674 336 l 675 1033 l 696 1043 l 804 1043 l 825 1033 l 825 364 z "},"V":{"ha":989,"x_min":58,"x_max":928,"o":"m 897 851 q 901 812 900 832 q 904 772 903 792 q 903 726 904 758 q 901 651 903 693 q 897 564 900 610 q 890 476 894 518 q 881 403 886 435 q 868 360 875 372 q 858 362 864 351 q 847 392 853 372 q 836 438 842 413 q 825 483 831 463 q 815 513 819 503 q 806 515 810 524 q 797 478 799 497 q 789 440 794 460 q 782 399 786 429 q 774 331 778 369 q 765 249 769 292 q 754 167 760 206 q 742 101 749 129 q 729 64 736 72 q 718 66 724 56 q 706 96 713 76 q 694 139 700 115 q 683 182 689 163 q 673 212 678 201 q 664 214 668 222 q 660 201 661 207 q 657 189 658 196 l 657 151 q 654 89 658 124 q 646 60 651 74 q 638 39 643 49 q 628 18 633 29 q 581 -42 607 -12 q 560 -75 571 -53 q 538 -122 549 -97 q 517 -169 528 -147 q 499 -203 507 -192 q 495 -208 496 -206 q 492 -212 494 -210 q 488 -247 489 -215 q 485 -328 486 -279 q 482 -440 483 -378 q 479 -567 481 -503 q 476 -694 478 -632 q 472 -804 474 -756 q 467 -883 469 -853 q 460 -914 464 -912 q 431 -917 446 -919 q 404 -907 417 -914 q 383 -887 392 -900 q 369 -862 374 -875 q 363 -838 368 -856 q 354 -802 358 -821 q 349 -767 350 -783 q 351 -743 347 -750 q 358 -706 354 -739 q 365 -620 361 -672 q 374 -503 369 -568 q 383 -369 378 -437 q 392 -236 388 -301 q 400 -119 396 -171 q 408 -34 404 -67 q 415 3 413 -1 l 217 447 q 199 446 211 446 q 193 431 196 446 q 187 399 190 417 q 180 367 183 381 q 174 353 176 353 q 149 365 160 356 q 131 386 138 375 q 121 413 122 397 q 122 443 119 429 q 128 487 124 449 q 138 569 132 525 q 149 649 143 613 q 163 688 156 685 q 163 692 163 690 q 164 694 164 693 l 124 804 q 122 806 122 804 q 116 796 119 808 q 109 768 113 783 q 103 740 106 753 q 97 732 100 728 q 87 745 92 739 q 78 758 82 751 q 69 795 71 772 q 65 833 67 818 q 65 853 65 838 q 65 885 65 868 q 66 918 65 903 q 68 938 67 933 q 71 946 68 940 l 58 979 l 68 1004 l 172 1044 l 197 1031 l 254 881 q 256 848 254 879 q 260 771 258 817 q 265 671 263 725 q 269 571 267 617 q 272 494 271 525 q 275 461 274 463 q 282 481 279 456 q 287 544 285 506 q 290 631 289 583 q 292 717 292 678 q 294 779 293 756 q 299 797 296 803 q 311 728 308 764 l 493 239 l 789 1035 l 814 1043 l 918 1003 l 928 978 l 892 879 q 897 851 899 864 z "},"W":{"ha":1310,"x_min":25,"x_max":1278,"o":"m 1007 -415 q 1020 -431 1014 -418 q 1032 -460 1026 -444 q 1042 -492 1038 -476 q 1051 -512 1047 -507 q 1060 -540 1058 -525 q 1058 -569 1061 -556 q 1046 -595 1056 -583 q 1025 -614 1036 -607 q 1011 -609 1018 -617 q 997 -590 1004 -601 q 983 -569 990 -579 q 968 -557 975 -560 q 905 -530 935 -546 q 857 -483 875 -514 q 843 -451 847 -468 q 835 -418 839 -435 q 834 -401 835 -417 q 833 -361 833 -385 q 833 -310 833 -337 q 832 -260 832 -283 q 832 -220 832 -236 q 832 -203 832 -204 q 821 -171 826 -201 q 811 -103 815 -140 q 803 -33 807 -65 q 794 3 799 -1 l 794 4 l 782 4 l 767 13 l 651 321 l 536 10 l 519 1 l 401 1 l 385 10 l 25 976 l 36 1001 l 139 1042 l 165 1028 l 460 236 l 572 536 l 535 636 l 529 631 q 522 608 526 626 q 515 562 518 589 q 506 504 511 535 q 497 448 501 474 q 487 406 492 422 q 478 389 482 389 q 450 394 464 388 q 426 410 436 400 q 410 434 417 419 q 404 463 403 449 q 406 506 406 472 q 408 577 407 539 q 409 649 408 615 q 410 692 410 682 l 410 811 q 396 829 401 818 q 383 881 383 851 q 385 907 385 894 q 385 933 385 919 q 406 985 385 961 q 408 987 407 986 q 411 989 410 988 l 417 1006 l 521 1046 l 546 1032 l 650 750 l 756 1032 l 781 1040 l 885 1000 l 896 975 l 731 535 l 842 239 l 1138 1035 l 1163 1043 l 1267 1003 l 1278 978 l 946 89 q 950 63 949 85 q 953 15 951 40 q 956 -33 954 -11 q 963 -58 958 -56 q 980 -89 976 -68 q 983 -132 983 -110 q 982 -174 983 -154 q 983 -204 981 -194 q 984 -219 983 -204 q 985 -258 985 -235 q 985 -307 985 -281 q 987 -356 986 -333 q 988 -394 988 -379 q 989 -410 988 -410 q 998 -412 993 -411 q 1007 -415 1003 -414 z "},"X":{"ha":963,"x_min":50,"x_max":904,"o":"m 904 58 l 874 40 l 874 35 q 874 -10 876 11 q 872 -55 872 -15 q 870 -151 871 -94 q 869 -272 869 -207 q 867 -394 868 -337 q 864 -490 865 -450 q 861 -535 863 -529 q 828 -578 853 -564 q 801 -587 815 -586 q 771 -586 786 -589 q 747 -573 758 -583 q 728 -551 735 -562 q 723 -509 725 -547 q 719 -415 721 -471 q 717 -293 718 -358 q 717 -172 717 -228 q 717 -76 717 -115 q 719 -32 718 -36 l 724 -19 q 716 -15 719 -17 q 708 -11 713 -14 q 679 10 693 -1 q 654 35 665 21 q 641 53 647 44 q 629 71 635 61 q 618 92 622 82 q 610 114 614 103 q 599 154 603 133 q 594 194 596 175 q 594 209 594 201 q 593 224 593 217 l 494 344 l 213 3 l 174 3 l 82 58 l 82 88 l 411 501 l 383 539 q 368 526 379 535 q 356 503 363 522 q 341 462 349 483 q 326 423 333 440 q 311 408 318 406 q 285 421 297 411 q 267 442 274 431 q 254 474 260 454 q 243 517 249 494 q 233 562 238 540 q 222 596 228 583 q 214 615 218 606 q 203 632 210 624 q 198 637 200 635 q 193 642 196 639 q 188 644 190 644 q 174 649 179 647 q 168 619 171 649 q 163 546 165 590 q 156 450 160 501 q 150 354 153 399 q 144 280 147 310 q 139 250 142 250 q 99 263 117 250 q 71 294 81 275 q 68 343 63 319 q 69 381 68 344 q 72 471 71 418 q 73 585 72 524 q 75 700 74 647 q 78 789 76 753 q 81 826 79 825 q 82 829 81 828 l 82 831 l 82 840 q 67 886 76 864 q 56 932 58 908 q 56 972 50 951 q 63 989 57 978 q 81 1010 69 1001 q 107 1024 93 1018 q 142 1024 122 1028 l 171 1042 l 210 1042 l 492 656 l 771 1042 l 810 1042 l 901 985 l 901 957 l 569 501 l 721 314 l 722 314 l 731 301 l 904 88 l 904 58 z "},"Y":{"ha":908,"x_min":42,"x_max":868,"o":"m 529 554 l 529 408 l 529 407 q 539 379 536 396 q 538 350 542 363 q 529 325 531 338 l 528 149 q 529 143 529 147 q 532 106 531 136 q 534 41 533 76 q 535 -24 535 6 q 536 -60 536 -54 q 535 -76 536 -68 q 533 -92 535 -85 q 529 -107 531 -103 q 528 -109 529 -108 q 528 -111 528 -110 l 528 -133 l 507 -150 l 506 -150 q 499 -160 503 -156 q 488 -171 493 -167 q 478 -181 483 -175 q 469 -214 474 -185 q 460 -285 465 -243 q 451 -374 456 -326 q 442 -464 447 -422 q 433 -535 438 -506 q 425 -568 429 -564 q 374 -590 403 -587 q 321 -568 343 -590 q 300 -517 300 -547 q 306 -488 300 -503 q 321 -464 311 -474 q 328 -433 325 -461 q 335 -365 331 -406 q 342 -276 339 -324 q 349 -188 344 -229 q 356 -119 353 -147 q 363 -87 358 -90 q 378 -72 371 -81 l 378 143 q 377 149 378 146 q 376 154 376 151 q 368 239 368 196 q 370 285 368 263 q 378 332 372 308 l 378 556 l 363 575 q 359 547 361 574 q 355 481 357 519 q 350 397 353 442 q 344 313 347 351 q 340 247 342 274 q 335 221 338 221 q 306 218 319 215 q 278 228 292 221 q 244 272 251 242 q 242 306 243 276 q 242 378 242 336 q 242 469 242 421 q 244 560 243 518 q 247 632 246 603 q 251 665 249 661 q 252 667 251 667 q 253 668 253 667 l 253 669 l 251 669 l 250 669 q 235 669 243 669 q 219 668 226 668 q 210 639 215 668 q 201 575 206 610 q 191 511 196 540 q 182 483 186 482 q 136 510 157 492 q 120 533 125 519 q 114 561 115 547 q 115 601 114 567 q 117 677 115 636 q 122 752 119 718 q 128 790 125 786 q 125 796 126 793 q 121 801 124 799 q 106 818 114 810 q 90 835 97 826 q 64 869 75 851 q 46 910 53 888 q 49 954 42 936 l 46 958 l 46 986 l 138 1043 l 176 1043 l 458 701 l 738 1043 l 776 1043 l 868 986 l 868 958 l 529 554 z "},"Z":{"ha":878,"x_min":57,"x_max":810,"o":"m 810 75 q 789 25 810 46 l 789 22 l 781 1 l 714 1 q 712 -29 713 -3 q 709 -93 711 -56 q 705 -174 707 -131 q 700 -253 703 -217 q 694 -316 697 -290 q 689 -344 692 -342 q 681 -374 685 -349 q 672 -433 676 -399 q 663 -508 668 -468 q 653 -583 658 -549 q 644 -640 649 -617 q 633 -664 639 -662 l 633 -674 q 628 -702 635 -689 q 613 -726 622 -715 q 560 -747 592 -747 q 532 -742 546 -749 q 508 -726 518 -736 q 492 -702 497 -715 q 486 -674 488 -689 l 486 -342 q 486 -312 486 -337 q 486 -249 486 -286 q 487 -170 486 -212 q 488 -91 488 -128 q 488 -28 488 -54 q 490 1 489 -3 l 65 1 l 57 18 l 57 136 l 65 153 l 594 893 l 278 893 q 279 880 279 886 q 279 867 279 874 q 276 844 278 856 q 271 822 274 833 l 271 819 q 271 788 271 815 q 271 722 271 761 q 270 638 271 682 q 269 554 269 593 q 266 488 268 515 q 263 457 264 461 q 218 422 249 432 q 189 421 204 418 q 161 431 174 424 q 140 449 150 438 q 128 474 131 461 q 126 504 126 478 q 126 569 126 531 q 125 652 125 608 q 125 734 125 696 q 125 799 125 772 q 125 828 125 825 q 118 813 121 829 q 112 769 115 796 q 106 713 108 743 q 100 657 103 682 q 94 615 97 632 q 89 601 92 599 q 63 658 67 624 l 57 914 l 57 1021 l 75 1042 l 782 1042 l 790 1021 l 790 913 l 782 892 l 779 892 l 779 889 l 261 151 l 781 151 l 789 131 l 789 126 q 804 102 800 115 q 810 75 808 89 z "},"a":{"ha":721,"x_min":42,"x_max":611,"o":"m 611 625 l 611 19 l 590 1 l 576 1 l 576 0 q 553 -67 579 -39 q 551 -99 551 -68 q 549 -177 550 -131 q 547 -278 547 -224 q 544 -378 546 -332 q 542 -456 543 -425 q 539 -489 540 -487 q 507 -544 539 -525 q 483 -553 497 -551 q 458 -551 469 -554 q 419 -522 433 -544 q 412 -478 415 -515 q 406 -387 408 -440 q 402 -272 404 -333 q 400 -158 400 -211 q 401 -66 400 -104 q 404 -19 401 -28 q 443 31 415 13 q 442 40 443 38 q 435 35 439 38 q 428 29 432 32 q 409 17 418 22 q 389 4 400 11 q 349 -12 371 -6 q 314 -19 333 -19 q 211 6 261 -19 q 124 74 160 31 q 64 176 86 117 q 42 306 42 233 q 67 438 42 379 q 131 542 92 500 q 213 610 169 588 q 297 633 260 633 q 356 624 331 633 q 404 597 386 613 q 440 561 425 582 q 460 522 453 542 l 460 625 l 479 633 l 590 633 l 611 625 m 426 233 q 439 299 439 264 q 428 363 439 329 q 396 419 419 393 q 360 453 383 440 q 352 433 356 454 q 344 380 349 413 q 337 308 340 347 q 329 236 333 269 q 322 181 325 203 q 314 158 318 158 q 306 181 310 158 q 299 236 303 203 q 291 308 294 269 q 283 379 288 347 q 276 432 279 411 q 268 451 272 453 q 247 435 257 444 q 229 414 238 426 q 200 361 210 390 q 190 299 190 332 q 200 240 190 265 q 229 189 211 208 q 269 153 246 165 q 314 139 289 142 q 393 179 358 142 q 426 233 414 201 z "},"b":{"ha":760,"x_min":31,"x_max":701,"o":"m 679 438 q 701 306 701 379 q 679 176 701 233 q 619 74 657 117 q 532 6 583 31 q 428 -19 482 -19 q 360 -6 393 -19 q 322 11 340 1 q 282 32 303 21 l 282 -26 l 264 -43 l 178 1 q 161 -8 172 -3 q 162 -28 161 -19 q 163 -49 163 -37 q 163 -88 163 -54 q 164 -171 164 -122 q 164 -274 164 -219 q 163 -378 164 -329 q 162 -460 163 -426 q 160 -500 161 -494 q 129 -537 153 -524 q 106 -546 118 -544 q 81 -544 93 -547 q 59 -533 69 -542 q 42 -515 49 -525 q 35 -465 31 -494 q 35 -430 35 -462 q 35 -351 35 -397 q 35 -251 35 -306 q 35 -151 35 -197 q 34 -74 35 -106 q 33 -37 33 -42 q 33 -7 32 -22 q 36 24 33 8 q 81 92 44 65 q 107 110 92 101 l 110 110 q 109 112 110 111 q 108 115 108 113 q 107 163 100 136 q 133 204 114 189 l 133 1032 l 154 1042 l 264 1042 l 282 1032 l 282 589 q 360 624 322 615 q 428 633 393 633 q 532 610 481 633 q 619 542 583 585 q 679 438 656 500 m 543 239 q 553 299 553 267 q 543 364 553 333 q 515 424 532 397 q 475 467 496 453 q 467 449 471 469 q 460 395 464 428 q 452 324 456 363 q 444 251 449 285 q 436 195 440 218 q 428 172 432 172 q 421 195 425 172 q 413 252 417 218 q 406 325 410 286 q 399 397 403 364 q 391 452 394 431 q 383 472 388 474 q 346 439 360 460 q 314 382 324 413 q 303 317 303 349 q 311 261 303 290 q 320 232 314 246 q 333 204 326 218 q 372 160 349 179 q 428 139 394 142 q 475 153 453 139 q 515 188 494 164 q 543 239 533 213 z "},"c":{"ha":707,"x_min":38,"x_max":625,"o":"m 618 -460 q 602 -478 613 -471 q 581 -490 592 -486 q 531 -483 553 -497 q 501 -447 510 -471 q 499 -417 500 -446 q 497 -345 499 -387 q 494 -253 496 -303 q 492 -160 493 -203 q 490 -89 490 -118 q 488 -58 489 -60 q 479 -47 483 -53 q 471 -36 475 -42 q 463 -28 467 -40 q 454 -2 458 -17 q 445 24 450 13 q 436 33 440 36 q 369 7 403 17 q 340 2 354 4 q 310 0 325 0 q 207 25 257 0 q 119 92 157 47 q 60 196 79 138 q 38 329 38 254 l 38 344 q 60 476 38 418 q 119 581 79 535 q 207 649 156 624 q 310 672 258 672 q 340 670 325 672 q 369 665 354 668 q 436 639 404 658 q 532 543 492 603 q 565 476 553 513 q 582 397 576 440 l 569 390 l 449 390 l 439 396 q 426 447 436 425 q 396 486 414 469 q 354 510 375 501 q 347 487 350 511 q 340 425 343 463 q 333 343 336 388 q 326 260 329 299 q 318 197 322 222 q 311 171 314 171 q 303 197 307 171 q 296 260 300 222 q 288 341 292 297 q 281 422 285 385 q 273 482 276 458 q 265 503 269 506 q 224 460 242 485 q 196 401 206 433 q 185 336 185 368 l 185 317 q 190 289 188 303 q 200 260 193 275 q 229 204 211 231 q 267 163 246 179 q 310 146 288 146 q 397 182 361 146 q 405 189 401 185 q 411 196 408 193 q 422 214 414 203 q 435 267 435 236 l 449 272 l 457 272 q 463 256 460 275 q 468 205 465 236 q 474 137 471 174 q 480 68 476 100 q 486 15 483 36 q 493 -4 489 -6 q 509 13 501 -3 q 524 51 517 29 q 540 97 532 72 q 553 140 547 121 q 566 169 560 158 q 578 174 572 179 l 583 171 q 582 168 582 169 q 600 153 592 158 q 611 142 608 147 q 611 131 614 138 q 597 115 608 125 q 594 111 594 113 l 597 108 q 603 66 600 104 q 608 -28 606 28 q 614 -149 611 -85 q 619 -270 617 -214 q 622 -366 621 -326 q 625 -411 624 -406 l 618 -460 z "},"d":{"ha":717,"x_min":50,"x_max":638,"o":"m 635 4 q 637 -37 636 0 q 638 -130 638 -75 q 637 -247 638 -185 q 635 -364 636 -310 q 632 -456 633 -418 q 629 -497 631 -493 q 612 -515 622 -508 q 590 -526 601 -522 q 540 -519 564 -533 q 511 -481 518 -506 q 510 -444 510 -479 q 509 -356 510 -408 q 508 -244 508 -304 q 506 -131 507 -183 q 505 -44 506 -79 q 504 -6 504 -8 q 503 -3 503 -4 q 501 -1 503 -3 q 490 -3 497 -3 q 460 0 476 -4 q 435 13 447 1 q 413 2 424 7 q 393 -6 403 -3 q 324 -19 357 -19 q 219 6 269 -19 q 174 35 196 18 q 132 74 151 51 q 72 176 94 117 q 50 306 50 233 q 72 438 50 379 q 132 542 96 500 q 174 581 151 564 q 219 610 196 597 q 324 633 271 633 q 393 624 358 633 q 469 589 429 615 l 469 1032 l 489 1042 l 600 1042 l 621 1032 l 621 46 q 628 25 625 35 q 635 4 632 15 m 208 364 q 199 299 199 333 q 208 239 199 267 q 231 196 217 218 q 237 197 233 197 q 244 199 240 197 q 250 172 247 199 q 256 112 253 144 q 261 51 258 79 q 267 22 264 24 q 276 37 271 22 q 286 69 281 51 q 297 101 292 86 q 306 115 301 115 q 347 126 326 118 q 359 131 354 129 q 371 136 364 133 q 383 151 376 138 q 397 181 390 165 q 410 207 404 196 q 424 215 417 218 q 440 261 433 238 q 449 317 449 290 q 438 382 449 349 q 406 439 428 413 q 368 472 390 460 q 360 451 364 474 q 353 395 357 429 q 345 321 349 361 q 338 246 342 281 q 331 188 335 211 q 324 164 326 164 q 315 187 319 164 q 307 244 311 210 q 299 319 303 279 q 292 393 296 360 q 284 448 288 426 q 276 467 281 469 q 238 424 254 451 q 208 364 219 400 z "},"e":{"ha":657,"x_min":33,"x_max":606,"o":"m 589 -85 q 590 -119 589 -86 q 590 -199 590 -151 q 590 -301 590 -246 q 589 -405 589 -357 q 589 -485 589 -453 q 590 -518 589 -517 q 592 -544 594 -531 q 583 -568 590 -557 q 567 -587 578 -579 q 546 -597 557 -594 q 520 -599 535 -600 q 496 -592 506 -599 q 478 -578 486 -585 q 461 -564 469 -571 q 447 -549 454 -557 q 433 -532 440 -542 q 431 -489 432 -531 q 430 -385 431 -447 q 428 -252 429 -324 q 427 -119 428 -181 q 426 -17 426 -58 q 424 28 425 25 q 367 7 393 13 q 337 2 351 4 q 307 0 322 0 q 204 24 256 0 q 117 92 153 49 q 56 196 79 133 q 33 329 33 254 l 33 343 q 56 476 33 418 q 117 581 79 539 q 204 649 153 624 q 307 672 256 672 q 337 670 322 672 q 367 665 351 668 q 400 656 383 663 q 433 639 417 649 q 489 589 461 624 q 513 556 501 574 q 536 518 525 538 q 555 478 547 499 q 568 433 563 457 q 581 344 581 389 l 568 338 l 185 338 q 186 308 185 322 q 193 276 188 293 q 203 245 197 260 q 217 215 210 231 q 256 167 235 183 q 307 147 279 147 q 356 158 331 147 q 393 189 374 168 q 418 231 408 204 q 428 279 428 251 l 442 286 l 564 286 l 576 279 q 576 255 576 278 q 574 199 575 232 q 572 126 574 165 q 570 54 571 88 q 569 -1 569 21 q 568 -25 568 -24 q 572 -8 569 -26 q 577 33 575 11 q 582 74 579 56 q 586 92 585 93 q 603 38 606 72 q 594 -28 601 3 q 581 -78 586 -60 q 589 -85 576 -97 m 221 464 q 209 444 214 453 q 200 428 204 436 l 422 428 q 413 446 418 438 q 401 464 408 454 q 388 482 394 474 q 374 499 381 490 q 342 524 360 513 q 333 513 338 526 q 325 483 329 500 q 317 453 321 467 q 308 439 313 439 q 301 453 304 439 q 293 483 297 467 q 285 513 289 500 q 278 524 282 526 q 263 512 271 518 q 249 499 256 506 q 235 482 242 490 q 221 464 228 474 z "},"f":{"ha":724,"x_min":33,"x_max":689,"o":"m 392 806 q 372 751 374 779 l 372 536 l 572 536 l 592 517 l 592 438 l 579 424 q 580 418 579 421 q 581 413 581 415 q 583 360 582 401 q 586 263 585 319 q 589 144 588 207 q 591 24 590 81 q 592 -74 592 -33 q 594 -125 593 -115 q 590 -149 596 -137 q 576 -171 585 -161 q 555 -185 567 -181 q 531 -190 543 -189 q 485 -171 504 -190 q 467 -125 467 -153 q 465 -81 465 -118 q 463 8 464 -44 q 462 122 463 61 q 460 235 461 182 q 459 324 460 288 q 457 368 458 361 q 450 340 453 368 q 444 271 447 313 q 437 181 440 229 q 430 90 433 132 q 424 22 426 49 q 418 -3 421 -4 q 413 28 415 -1 q 409 103 411 58 q 405 199 407 147 q 401 296 403 251 q 397 371 399 340 q 393 404 394 401 l 372 404 l 372 -56 l 354 -153 l 336 -72 q 333 -119 335 -81 q 331 -211 332 -157 q 328 -326 329 -265 q 325 -441 326 -387 q 322 -533 324 -494 q 318 -579 319 -572 q 289 -618 311 -604 q 265 -626 278 -625 q 240 -625 251 -628 q 217 -614 228 -622 q 201 -596 207 -606 q 197 -557 199 -592 q 194 -472 196 -522 q 192 -365 193 -422 q 192 -257 192 -307 q 192 -172 192 -207 q 193 -133 192 -137 q 207 -69 201 -101 q 217 -3 213 -36 q 219 7 217 -1 l 219 417 l 42 417 l 33 438 l 33 517 l 43 538 l 219 536 l 219 833 q 264 913 232 888 q 297 937 279 928 q 332 953 314 946 q 403 968 372 967 q 432 969 419 968 q 451 969 444 969 q 624 908 558 969 q 689 711 689 849 l 672 696 l 571 696 l 554 713 q 532 801 554 774 q 443 828 510 829 q 392 806 408 828 z "},"g":{"ha":747,"x_min":54,"x_max":654,"o":"m 654 615 l 654 -125 q 618 -228 653 -185 q 535 -296 583 -271 q 438 -332 485 -322 q 358 -339 386 -343 q 325 -334 342 -337 q 292 -325 308 -331 q 294 -338 293 -332 q 296 -351 294 -344 q 298 -401 296 -354 q 301 -517 300 -447 q 305 -665 303 -586 q 308 -814 307 -744 q 310 -930 310 -883 q 310 -979 310 -976 q 307 -987 308 -983 q 304 -994 306 -992 q 287 -1013 297 -1006 q 265 -1025 276 -1021 q 215 -1018 239 -1032 q 197 -1001 206 -1012 q 186 -979 188 -990 q 183 -926 185 -975 q 180 -808 182 -878 q 175 -656 178 -737 q 170 -505 172 -575 q 166 -386 168 -435 q 164 -333 164 -337 q 162 -320 163 -326 q 160 -307 161 -314 q 147 -297 158 -306 q 144 -317 144 -296 q 144 -362 144 -337 q 144 -408 144 -387 q 142 -426 143 -429 q 133 -451 138 -422 q 125 -526 129 -481 q 117 -626 121 -572 q 110 -725 114 -679 q 102 -800 106 -771 q 94 -825 99 -829 q 81 -810 88 -818 q 67 -793 74 -803 q 61 -751 64 -789 q 57 -658 58 -712 q 55 -540 56 -603 q 54 -422 54 -476 q 54 -328 54 -367 q 56 -283 54 -289 q 65 -260 58 -271 q 78 -240 71 -250 q 76 -213 78 -239 q 72 -158 74 -187 q 68 -104 69 -129 q 67 -76 67 -79 q 69 -76 68 -72 q 74 -87 71 -81 q 79 -99 76 -94 q 86 -101 82 -104 q 86 -85 86 -97 q 85 -58 86 -72 q 85 -31 85 -43 q 85 -14 85 -18 l 99 -1 l 232 -1 l 247 -15 q 256 -75 247 -46 q 278 -129 264 -107 q 314 -167 292 -151 q 358 -181 333 -181 q 403 -176 379 -181 q 446 -162 425 -175 q 481 -133 465 -153 q 501 -87 494 -115 l 501 44 q 425 8 460 17 q 357 0 389 0 q 254 24 300 0 q 167 90 204 46 q 106 194 128 136 q 83 328 83 258 q 106 457 83 393 q 132 513 117 488 q 167 560 147 538 q 254 628 203 603 q 357 654 301 654 q 425 639 388 654 q 501 601 461 626 l 501 615 l 521 633 l 633 633 l 654 615 m 471 271 q 481 336 481 301 q 471 394 481 367 q 443 446 461 421 q 403 481 422 469 q 395 463 399 483 q 388 411 392 443 q 380 341 383 379 q 372 270 376 303 q 365 216 368 238 q 357 194 361 194 q 349 216 353 194 q 340 270 344 238 q 333 341 336 303 q 326 411 329 379 q 318 463 322 443 q 311 481 314 483 q 271 446 289 468 q 243 394 254 425 q 232 336 232 364 q 243 272 232 306 q 255 244 249 257 q 271 219 261 231 q 311 183 288 196 q 357 169 331 169 q 401 182 378 169 q 438 214 425 193 q 471 271 460 239 z "},"h":{"ha":793,"x_min":35,"x_max":707,"o":"m 682 447 q 707 318 703 389 l 707 10 l 688 1 l 575 1 l 554 10 l 554 299 q 546 363 554 331 q 537 391 543 378 q 524 415 531 404 q 490 453 511 438 q 483 424 486 454 q 474 346 479 393 q 465 243 469 299 q 456 140 461 188 q 447 60 451 92 q 439 28 443 28 q 431 60 435 28 q 424 140 428 92 q 417 245 421 189 q 410 349 414 301 q 402 428 407 396 q 392 458 397 460 q 346 431 360 450 q 314 369 325 406 q 307 334 310 351 q 304 301 304 317 l 304 18 l 285 0 l 256 0 q 251 -44 253 -3 q 246 -144 249 -85 q 241 -273 243 -204 q 236 -401 239 -342 q 231 -501 233 -461 q 225 -542 228 -540 q 213 -567 218 -544 q 201 -617 207 -590 q 190 -665 196 -643 q 178 -687 183 -687 q 176 -690 178 -689 q 156 -704 168 -700 q 131 -708 143 -708 q 107 -704 119 -710 q 86 -690 94 -699 q 72 -669 75 -679 q 67 -644 68 -658 q 69 -621 67 -635 q 74 -610 72 -615 q 79 -600 76 -606 q 111 -571 92 -581 q 117 -519 114 -569 q 124 -396 121 -469 q 131 -237 128 -322 q 138 -78 135 -151 q 145 43 142 -6 q 153 92 149 92 l 153 560 q 148 517 150 558 q 143 413 146 475 q 138 279 140 351 q 132 145 135 207 q 126 42 129 83 q 121 0 124 0 q 72 6 94 -7 q 42 46 50 19 q 49 94 35 71 q 53 138 50 99 q 58 233 56 176 q 65 354 61 289 q 72 475 68 419 q 78 568 75 531 q 86 607 82 606 q 87 619 86 608 q 88 642 88 629 q 90 666 89 656 q 90 678 90 676 q 103 687 97 686 q 110 690 108 688 q 106 701 111 692 q 88 735 101 710 q 84 776 79 749 q 99 833 89 803 q 118 890 108 863 q 131 933 128 918 q 153 967 135 953 l 153 1033 l 174 1042 l 285 1042 l 304 1033 l 304 556 q 371 615 326 596 q 447 635 417 635 q 546 611 499 635 q 626 547 594 586 q 657 501 643 526 q 682 447 671 476 z "},"i":{"ha":668,"x_min":79,"x_max":621,"o":"m 621 118 l 621 21 l 601 1 l 208 0 l 208 -346 q 189 -392 208 -372 q 169 -406 181 -401 q 144 -411 157 -410 q 99 -392 118 -411 q 84 -371 89 -383 q 79 -346 79 -358 l 79 67 q 81 49 79 72 q 84 -3 82 26 q 89 -56 86 -32 q 96 -75 92 -79 l 96 118 l 103 139 l 282 139 l 282 515 l 269 515 q 264 504 268 510 q 258 474 261 500 q 252 412 256 449 q 245 333 249 375 q 238 256 242 292 q 231 194 235 219 q 225 165 228 169 q 191 149 211 151 q 154 153 171 146 q 114 211 117 168 l 114 576 q 124 611 114 597 l 124 639 l 131 658 l 414 658 l 433 640 l 433 139 l 601 139 l 621 118 m 360 743 q 286 774 319 743 q 256 847 256 807 q 286 921 256 890 q 360 951 317 951 q 433 921 404 951 q 464 847 464 892 q 433 774 464 804 q 360 743 403 743 z "},"j":{"ha":678,"x_min":40,"x_max":589,"o":"m 589 629 l 589 -56 l 586 -93 q 560 -199 582 -158 q 504 -265 536 -243 q 432 -300 469 -289 q 358 -308 392 -308 q 256 -285 303 -306 q 169 -225 208 -264 q 169 -256 169 -225 q 169 -335 169 -287 q 169 -437 169 -382 q 169 -540 169 -492 q 169 -619 169 -587 q 169 -650 169 -650 l 169 -674 q 151 -719 169 -699 q 131 -733 143 -729 q 106 -737 118 -737 q 81 -733 94 -739 q 60 -719 68 -728 q 42 -674 42 -699 q 42 -619 42 -657 q 42 -532 42 -581 q 41 -429 42 -483 q 40 -326 40 -375 q 40 -238 40 -276 q 40 -183 40 -200 q 45 -162 40 -171 q 58 -143 50 -153 q 65 -158 61 -140 q 72 -206 68 -176 q 81 -272 76 -236 q 89 -337 85 -307 q 97 -388 93 -368 q 106 -408 101 -408 q 113 -377 110 -408 q 121 -300 117 -346 q 128 -200 125 -254 q 135 -101 132 -146 q 142 -26 139 -56 q 147 1 144 4 l 232 1 l 246 -4 q 247 -33 246 -19 q 253 -62 249 -47 q 275 -112 261 -92 q 310 -146 286 -132 q 358 -158 332 -158 q 401 -146 386 -158 q 424 -112 415 -132 q 432 -71 429 -94 q 433 -50 432 -60 q 433 -31 433 -40 l 433 500 l 393 500 q 393 451 393 489 q 394 364 393 414 q 394 258 394 314 q 395 151 394 201 q 397 64 396 101 q 397 15 397 26 q 393 -8 399 3 q 379 -29 388 -19 q 358 -43 369 -39 q 333 -49 346 -47 q 288 -29 307 -49 q 269 15 269 -12 q 267 79 268 35 q 266 181 267 124 q 265 301 265 238 q 265 422 265 365 q 265 523 265 479 q 265 586 265 567 q 278 624 267 607 l 278 628 l 286 649 l 319 649 q 331 650 322 650 q 344 649 339 650 l 569 649 l 589 629 m 439 722 q 365 753 396 722 q 335 826 335 783 q 365 900 335 869 q 439 931 396 931 q 513 900 482 931 q 543 826 543 869 q 513 753 543 783 q 439 722 482 722 z "},"k":{"ha":735,"x_min":47,"x_max":667,"o":"m 667 104 l 667 76 l 590 -1 l 568 -1 q 569 -56 568 -14 q 569 -156 569 -99 q 569 -276 569 -212 q 569 -397 569 -340 q 570 -497 569 -454 q 571 -551 571 -539 q 551 -597 571 -579 q 506 -615 532 -614 q 482 -611 494 -617 q 461 -596 469 -606 q 442 -551 442 -579 q 441 -486 442 -533 q 440 -377 440 -439 q 440 -246 440 -315 q 439 -115 439 -176 q 439 -6 439 -53 q 439 60 439 42 q 435 57 436 58 q 433 54 435 56 q 413 40 422 47 q 392 31 404 33 q 384 -1 388 29 q 376 -76 381 -32 q 368 -172 372 -121 q 360 -267 364 -224 q 353 -340 357 -311 q 344 -368 349 -369 q 306 -344 322 -361 q 283 -303 290 -326 q 278 -267 276 -285 q 286 -231 281 -249 q 289 -194 288 -226 q 292 -113 290 -161 q 297 -10 294 -65 q 303 91 300 44 q 308 169 306 138 q 315 204 311 201 q 342 213 328 213 l 247 306 l 199 257 l 199 19 l 181 1 l 68 1 l 47 19 l 47 1024 l 68 1042 l 181 1042 l 199 1024 l 199 461 l 469 735 l 476 743 l 506 743 l 543 492 q 547 508 544 492 q 551 550 549 525 q 554 604 553 575 q 558 658 556 633 q 561 699 560 683 q 564 715 563 715 q 594 689 582 708 l 597 688 l 597 685 q 604 657 604 671 q 606 585 606 621 q 608 513 607 549 q 607 472 608 506 q 603 399 606 439 q 597 326 600 360 q 589 289 593 293 q 568 275 581 279 q 543 271 556 271 q 519 275 532 269 q 497 289 506 281 q 496 292 497 290 q 488 317 492 290 q 481 376 485 343 q 472 438 476 410 q 464 465 468 465 q 439 475 449 468 q 435 456 438 469 q 428 426 432 442 q 419 399 424 411 q 410 383 414 386 q 401 388 406 381 q 391 403 396 394 q 381 422 386 413 q 371 431 376 431 l 354 413 l 658 113 l 667 104 z "},"l":{"ha":729,"x_min":53,"x_max":633,"o":"m 633 99 l 633 19 l 615 0 l 604 0 q 603 -35 604 -3 q 601 -117 603 -67 q 599 -230 600 -167 q 595 -359 597 -293 q 591 -488 593 -425 q 587 -601 589 -551 q 583 -681 585 -650 q 579 -714 581 -712 q 559 -728 571 -724 q 535 -733 547 -732 q 489 -714 508 -733 q 484 -658 486 -711 q 481 -527 482 -606 q 478 -358 479 -449 q 478 -190 478 -268 q 477 -58 478 -111 q 476 0 476 -4 l 86 -1 l 76 19 l 76 99 l 83 119 l 263 119 l 263 901 l 243 901 l 218 901 q 186 871 207 882 l 186 869 q 186 816 186 864 q 186 699 186 768 q 186 550 186 629 q 186 401 186 471 q 186 284 186 332 q 188 231 186 236 q 183 206 189 218 q 168 186 176 194 q 147 172 160 176 q 122 167 135 168 q 99 172 111 167 q 76 186 86 178 q 63 207 67 196 q 58 231 60 218 q 57 283 57 236 q 57 399 57 331 q 58 548 57 468 q 58 697 58 628 q 58 813 58 765 q 57 865 57 860 q 54 896 56 881 q 53 926 53 911 q 54 924 53 935 q 58 891 56 913 q 65 842 61 869 q 75 790 69 814 q 88 752 81 767 q 103 740 94 738 l 103 1021 l 111 1042 l 394 1043 l 414 1025 l 414 231 l 422 226 q 433 197 428 224 q 442 137 438 169 q 449 76 446 104 q 454 42 451 47 l 460 42 q 487 51 472 43 q 516 67 501 60 q 544 77 531 75 q 569 71 558 79 q 581 76 576 65 q 589 101 586 88 q 594 125 592 115 q 597 126 596 135 l 597 119 l 615 119 l 633 99 z "},"m":{"ha":896,"x_min":51,"x_max":824,"o":"m 824 410 l 824 8 l 806 0 l 710 0 q 710 -37 710 -6 q 710 -119 710 -69 q 710 -230 710 -168 q 711 -356 711 -292 q 712 -481 711 -419 q 713 -592 713 -543 q 713 -672 713 -640 q 715 -710 714 -704 q 710 -734 717 -722 q 696 -756 704 -746 q 651 -774 679 -774 q 626 -769 639 -775 q 606 -756 614 -764 q 592 -735 596 -746 q 586 -710 586 -724 q 584 -648 585 -700 q 583 -523 583 -596 q 581 -366 582 -450 q 581 -209 581 -282 q 581 -84 581 -136 q 582 -22 581 -32 q 597 25 583 1 q 633 58 614 49 q 642 70 638 60 q 650 92 646 81 q 657 109 654 103 q 663 110 660 115 q 667 84 665 106 q 668 17 668 63 q 671 53 669 24 q 673 117 672 83 q 675 180 674 150 q 678 217 676 210 q 676 317 685 264 q 663 418 668 371 q 667 440 663 429 q 653 464 663 456 q 645 446 649 467 q 638 392 642 425 q 629 319 633 358 q 621 244 625 279 q 612 187 617 210 q 603 164 607 164 q 594 188 599 164 q 584 246 589 211 q 574 321 579 281 q 565 396 569 361 q 554 452 560 431 q 544 472 549 474 q 518 459 529 465 q 499 446 507 453 l 499 8 l 481 0 l 379 0 l 360 8 l 360 417 q 359 426 360 419 q 357 440 358 432 q 339 472 356 458 q 333 442 336 474 q 327 360 331 410 q 319 251 324 310 q 310 142 315 193 q 301 58 306 92 q 290 25 296 25 q 278 58 285 25 q 265 142 272 92 q 251 249 258 192 q 235 355 243 307 q 217 433 226 403 q 197 458 207 463 l 197 17 l 178 0 l 71 0 l 53 17 l 53 314 l 53 501 q 53 568 53 536 q 51 629 53 600 l 71 638 l 197 638 l 197 583 q 216 594 204 588 q 244 608 228 600 q 324 633 279 625 q 414 633 368 642 q 497 585 461 625 q 535 605 517 596 q 569 621 553 614 q 638 638 603 636 q 693 631 660 639 q 751 596 725 622 q 799 526 781 569 q 822 411 821 479 l 824 410 z "},"n":{"ha":650,"x_min":65,"x_max":565,"o":"m 501 1 q 503 -6 503 -1 q 503 -49 503 -7 q 503 -153 503 -92 q 503 -287 503 -215 q 502 -422 503 -360 q 501 -526 501 -483 q 501 -569 501 -568 q 496 -619 507 -596 q 457 -649 483 -642 q 432 -651 446 -653 q 407 -643 418 -649 q 389 -626 397 -636 q 378 -604 381 -615 q 375 -549 376 -597 q 373 -434 374 -501 q 372 -288 372 -367 q 372 -142 372 -210 q 372 -27 372 -75 q 372 28 372 21 q 376 53 374 40 q 382 79 378 67 q 384 82 383 83 q 385 77 385 81 q 388 72 386 74 q 392 75 389 71 l 392 79 l 392 88 q 386 92 392 92 q 374 91 381 92 q 363 90 368 90 q 356 94 357 90 q 358 111 354 101 q 367 131 361 121 q 376 149 372 140 q 381 167 381 158 q 382 172 381 172 q 386 170 383 172 q 392 167 389 168 q 400 171 396 167 q 406 191 403 174 q 411 228 408 208 q 417 264 414 247 q 425 282 421 281 l 425 392 q 400 469 425 444 q 391 451 396 474 q 381 392 386 428 q 370 312 376 356 q 358 231 364 268 q 347 167 353 193 q 336 143 342 142 q 325 169 331 143 q 314 235 319 196 q 303 318 308 274 q 293 401 299 363 q 282 463 288 439 q 271 485 276 488 q 211 449 235 469 l 211 18 l 192 1 l 85 1 l 67 19 l 67 315 l 67 503 q 66 570 67 539 q 65 631 65 601 l 85 640 l 211 640 l 211 608 q 226 617 217 613 q 249 625 236 621 q 278 633 263 629 q 310 639 293 636 q 383 639 344 643 q 421 631 403 636 q 457 615 439 626 q 521 557 492 596 q 564 454 550 518 l 565 10 l 547 1 l 501 1 z "},"o":{"ha":663,"x_min":44,"x_max":610,"o":"m 610 356 q 600 265 610 304 q 600 230 601 247 q 592 196 599 213 q 540 110 574 147 q 465 40 506 72 q 401 3 435 17 q 401 -32 401 0 q 401 -110 401 -64 q 399 -210 400 -157 q 398 -308 399 -262 q 396 -385 397 -354 q 393 -419 394 -417 q 354 -449 381 -442 q 329 -451 343 -453 q 304 -443 315 -449 q 286 -426 292 -436 q 275 -404 276 -415 q 271 -366 272 -400 q 267 -285 269 -332 q 262 -183 264 -237 q 258 -81 260 -128 q 254 0 257 -33 q 250 39 251 33 q 238 44 243 42 q 225 49 232 46 q 175 78 199 61 q 132 118 151 94 q 68 222 90 164 q 44 356 44 279 q 68 501 44 440 q 131 608 90 564 q 222 672 172 653 q 329 694 271 694 q 433 672 385 694 q 524 608 485 651 q 586 501 564 564 q 603 433 597 469 q 610 356 610 397 m 203 293 q 214 264 207 278 q 229 238 221 250 q 269 197 246 213 q 319 182 290 182 l 342 182 q 406 210 378 185 q 447 272 433 238 q 460 315 456 293 q 454 336 457 326 q 449 357 451 346 l 436 411 q 431 431 433 421 q 425 451 428 440 q 421 458 422 457 q 418 462 419 461 q 415 464 417 463 q 412 466 413 465 q 408 468 411 467 q 404 469 406 469 q 401 471 403 469 q 373 444 381 464 q 365 399 365 425 q 367 342 364 372 q 369 287 369 313 q 363 243 369 261 q 339 222 357 225 q 306 222 322 218 q 292 242 299 224 q 281 290 286 261 q 272 351 276 318 q 264 415 267 385 q 260 467 261 444 q 258 497 258 490 q 257 508 258 504 q 244 494 250 501 q 232 479 238 488 q 203 419 213 451 q 194 388 196 404 q 192 354 192 371 q 203 293 192 324 z "},"p":{"ha":724,"x_min":83,"x_max":653,"o":"m 631 436 q 653 308 653 378 q 631 175 653 233 q 571 71 607 113 q 506 17 543 39 q 508 -10 507 3 q 511 -37 508 -24 q 513 -100 513 -47 q 513 -226 513 -153 q 512 -384 513 -300 q 511 -542 511 -468 q 513 -667 511 -615 q 517 -729 514 -719 q 519 -755 521 -742 q 511 -779 517 -768 q 472 -808 499 -801 q 447 -810 461 -812 q 422 -803 433 -808 q 393 -764 401 -789 q 388 -699 389 -753 q 385 -569 386 -644 q 385 -409 385 -494 q 385 -249 385 -324 q 385 -120 386 -174 q 383 -54 385 -67 q 356 -64 372 -62 q 347 -93 353 -64 q 336 -165 342 -122 q 324 -256 331 -207 q 312 -346 318 -304 q 301 -415 306 -387 q 293 -440 296 -442 q 281 -430 286 -436 q 269 -417 275 -424 q 268 -383 268 -414 q 269 -306 268 -351 q 271 -208 269 -261 q 274 -110 272 -156 q 276 -33 275 -64 q 275 1 276 -1 q 261 8 268 4 q 247 17 254 13 q 242 16 244 17 q 236 15 239 15 l 235 15 l 235 -418 l 215 -426 l 104 -426 l 83 -418 l 83 594 l 104 613 l 215 613 l 235 594 l 235 581 q 274 603 254 593 q 311 619 293 613 q 381 633 350 633 q 483 608 433 633 q 571 539 532 583 q 631 436 607 499 m 263 353 q 258 324 260 338 q 256 296 256 310 q 258 263 256 279 q 267 231 261 247 q 299 174 275 200 q 335 142 311 153 q 381 129 357 129 q 426 146 403 129 q 447 165 438 154 q 465 189 457 175 q 494 249 485 217 q 504 315 504 279 q 494 374 504 346 q 465 425 485 401 q 447 445 457 436 q 426 461 438 454 q 419 441 422 463 q 411 385 415 419 q 403 311 407 351 q 396 236 400 271 q 388 178 392 201 q 381 154 385 154 q 369 177 375 154 q 359 234 364 200 q 350 308 354 268 q 342 381 346 347 q 333 435 338 414 q 325 453 329 456 q 286 408 300 435 q 272 381 278 394 q 263 353 267 368 z "},"q":{"ha":672,"x_min":43,"x_max":613,"o":"m 613 592 l 613 -422 l 592 -431 l 481 -431 l 461 -422 l 461 21 q 385 -15 419 -7 q 378 -51 381 -15 q 372 -141 375 -87 q 365 -256 368 -194 q 360 -372 363 -318 q 353 -460 357 -425 q 347 -496 350 -496 q 342 -468 344 -500 q 337 -386 340 -436 q 330 -277 333 -336 q 322 -167 326 -218 q 315 -83 318 -117 q 307 -51 311 -50 q 284 -53 297 -54 q 261 -47 271 -53 l 261 -82 q 261 -142 261 -94 q 261 -256 261 -190 q 262 -395 261 -321 q 263 -535 263 -469 q 263 -648 263 -600 q 263 -708 263 -696 q 244 -753 263 -732 q 223 -767 235 -762 q 199 -772 211 -771 q 153 -753 172 -772 q 135 -708 135 -735 q 135 -656 135 -700 q 135 -552 135 -612 q 134 -422 135 -492 q 133 -291 133 -351 q 133 -187 133 -231 q 133 -135 133 -143 l 133 43 l 133 60 q 125 67 131 61 q 65 171 89 108 q 43 304 43 229 q 65 433 43 375 q 125 536 89 496 q 213 604 165 581 q 315 631 261 631 q 385 617 346 631 q 422 600 403 610 q 461 578 442 590 l 461 592 l 481 610 l 592 610 l 613 592 m 431 228 q 440 292 440 257 q 433 349 440 317 q 424 378 429 364 q 410 406 418 392 q 392 430 403 419 q 371 450 382 440 q 363 432 367 453 q 356 378 360 411 q 347 306 351 344 q 337 233 342 267 q 327 176 332 199 q 317 153 322 153 q 309 176 313 153 q 301 233 306 199 q 293 308 297 268 q 285 383 289 349 q 277 438 281 417 q 269 457 274 460 q 231 422 249 444 q 201 371 211 399 q 192 311 192 343 q 201 246 192 276 q 231 185 211 213 q 249 160 239 171 q 269 142 258 150 q 315 125 292 125 q 361 138 338 125 q 397 169 386 151 q 431 228 421 197 z "},"r":{"ha":574,"x_min":56,"x_max":507,"o":"m 506 458 q 507 408 507 443 q 506 335 507 374 q 503 263 506 297 q 496 214 500 229 q 465 176 488 189 q 442 168 454 169 q 417 169 429 167 q 395 181 406 172 q 378 199 385 189 q 371 249 364 221 q 373 275 372 253 q 374 323 374 297 q 374 372 374 349 q 375 399 375 394 q 369 369 372 400 q 362 290 365 338 q 355 188 358 243 q 349 85 351 132 q 343 8 346 39 q 339 -18 340 -22 q 335 23 336 -14 q 332 114 333 60 q 331 231 331 168 q 330 347 331 293 q 330 440 329 401 q 331 482 331 478 l 331 496 q 330 498 331 497 q 329 500 329 499 q 304 506 315 506 q 291 492 297 506 q 278 461 285 478 q 265 428 272 444 q 251 408 258 413 q 238 412 244 404 q 226 429 232 419 q 213 445 219 439 q 201 446 207 451 l 201 17 l 182 -1 l 75 -1 l 57 17 l 57 313 l 57 500 q 57 567 57 536 q 56 628 57 599 l 75 638 l 185 638 l 206 618 q 228 626 214 621 q 263 636 243 631 q 349 638 301 646 q 440 594 397 629 q 507 475 485 558 l 506 469 l 506 458 z "},"s":{"ha":663,"x_min":57,"x_max":599,"o":"m 568 282 q 599 201 599 243 q 574 121 599 160 q 507 50 546 81 q 415 1 463 19 q 317 -17 367 -17 q 246 0 289 -17 q 238 5 242 3 q 228 10 233 7 q 210 7 219 7 q 193 10 201 7 l 190 10 q 190 -40 190 8 q 190 -158 190 -87 q 191 -309 190 -228 q 192 -460 192 -390 q 192 -578 192 -531 q 192 -628 192 -626 q 193 -636 193 -631 q 193 -671 200 -654 q 190 -678 192 -675 q 188 -686 189 -682 q 149 -715 175 -708 q 124 -717 138 -719 q 99 -710 110 -715 q 81 -692 89 -703 q 69 -671 72 -682 q 65 -599 67 -658 q 63 -459 64 -540 q 60 -285 61 -378 q 58 -112 58 -193 q 58 28 58 -31 q 57 100 57 88 q 58 117 58 108 q 58 135 58 125 q 60 159 60 146 q 64 183 61 172 q 83 218 68 203 q 92 180 88 222 q 103 72 97 138 q 114 -73 108 6 q 126 -219 119 -151 q 138 -333 132 -287 q 149 -381 143 -379 q 156 -337 153 -382 q 162 -226 158 -293 q 167 -81 165 -158 q 172 64 169 -3 q 177 174 175 131 q 182 215 179 218 l 235 224 l 240 221 q 275 149 253 169 q 317 122 294 131 q 356 119 335 115 q 397 138 381 126 q 429 169 418 150 q 436 208 442 189 q 403 247 429 229 q 387 236 396 253 q 367 199 378 219 q 344 160 357 178 q 317 147 331 143 q 280 180 297 153 q 247 238 263 207 q 219 296 232 269 q 194 326 206 322 q 129 360 150 343 q 101 392 108 375 q 95 408 97 399 q 90 429 93 418 q 106 542 86 496 q 158 610 128 589 q 233 644 190 633 q 275 652 254 650 q 317 656 296 654 q 331 656 324 656 q 350 654 339 656 q 369 652 360 653 q 390 649 379 651 q 410 644 401 646 q 431 639 419 642 q 451 631 442 635 q 468 622 460 628 q 475 617 471 619 q 486 611 479 615 q 521 586 500 606 q 558 535 540 567 q 589 444 575 504 l 582 440 l 446 431 l 439 436 q 317 531 419 540 q 261 508 283 529 q 243 457 239 486 q 264 435 243 449 q 288 424 275 429 q 315 413 300 418 q 347 399 331 406 q 383 386 364 393 q 421 372 403 379 q 457 357 439 364 l 467 353 q 568 282 539 321 z "},"t":{"ha":754,"x_min":21,"x_max":693,"o":"m 693 286 q 629 74 693 146 q 456 0 563 0 q 453 -36 454 0 q 451 -126 453 -72 q 449 -244 450 -181 q 446 -361 447 -307 q 442 -451 444 -415 q 439 -487 440 -487 q 404 -499 424 -499 q 395 -462 400 -499 q 386 -372 390 -426 q 377 -254 382 -318 q 368 -136 372 -190 q 359 -46 364 -82 q 350 -10 354 -10 q 318 -6 332 -10 q 313 -58 315 -12 q 307 -167 310 -103 q 301 -306 304 -232 q 294 -445 297 -381 q 288 -555 292 -510 q 282 -607 285 -600 q 277 -622 279 -614 q 274 -637 275 -629 q 243 -675 267 -661 q 219 -683 232 -682 q 194 -682 206 -685 q 172 -671 182 -679 q 156 -653 161 -662 q 149 -603 142 -628 q 153 -547 150 -594 q 160 -432 157 -499 q 167 -290 163 -365 q 175 -148 171 -214 q 183 -35 179 -82 q 190 21 186 13 q 195 36 193 28 q 200 53 197 44 q 201 71 201 63 q 200 89 200 79 q 204 125 200 106 q 208 136 206 131 q 213 147 210 142 q 218 157 214 153 q 221 160 219 160 q 224 164 222 161 l 224 519 q 218 490 221 518 q 213 422 215 463 q 207 333 210 381 q 201 246 204 286 q 194 178 197 206 q 189 151 192 151 q 185 178 188 151 q 182 244 183 204 q 178 331 181 285 q 175 417 176 378 q 172 484 174 457 q 169 511 171 511 q 165 510 167 511 q 164 498 164 503 q 164 486 164 493 q 162 428 163 476 q 160 311 161 379 q 158 165 158 243 q 156 19 157 88 q 153 -97 154 -49 q 150 -156 151 -146 q 139 -177 147 -167 q 119 -194 131 -187 q 71 -200 97 -207 q 49 -190 60 -197 q 32 -171 39 -182 q 24 -147 26 -161 q 25 -121 21 -132 q 26 -115 26 -118 q 28 -107 26 -111 q 31 -43 29 -94 q 33 78 32 8 q 35 229 33 149 q 37 380 36 310 q 38 501 38 450 q 39 565 39 553 l 39 582 l 38 585 l 38 674 l 46 694 l 224 694 l 224 1024 l 244 1042 l 357 1042 l 376 1024 l 376 694 l 576 694 l 596 674 l 596 585 l 576 565 l 376 565 l 376 201 q 396 149 378 172 q 447 125 413 125 q 507 139 482 125 q 540 175 528 151 q 554 226 553 199 q 558 285 558 253 l 575 301 l 676 301 l 693 286 z "},"u":{"ha":629,"x_min":56,"x_max":592,"o":"m 590 -579 q 585 -604 592 -592 q 571 -625 579 -617 q 550 -639 563 -635 q 525 -644 538 -643 q 481 -625 500 -644 q 467 -604 471 -618 q 461 -579 461 -594 l 461 -575 q 458 -531 460 -568 q 453 -444 456 -494 q 447 -335 450 -393 q 442 -226 444 -276 q 436 -138 439 -175 q 431 -94 433 -101 q 426 -82 428 -87 q 422 -71 425 -76 q 421 -18 414 -47 q 422 -13 422 -15 q 424 -8 422 -11 l 422 -8 l 401 11 l 364 -1 q 350 -30 357 -3 q 336 -89 343 -57 q 322 -148 329 -121 q 306 -175 314 -175 q 272 -176 289 -176 q 235 -172 254 -175 q 215 -143 225 -171 q 197 -81 206 -115 q 178 -17 188 -47 q 161 18 169 13 q 97 76 126 36 q 56 178 71 114 l 56 631 l 74 639 l 175 639 l 196 629 l 196 239 q 221 151 196 178 q 230 126 225 147 q 240 76 235 106 q 251 13 246 46 q 263 -48 257 -19 q 276 -95 269 -76 q 288 -114 282 -114 q 303 -76 296 -114 q 317 8 310 -39 q 331 94 324 54 q 347 139 339 135 q 407 182 382 156 l 407 621 l 426 639 l 533 639 l 551 621 l 551 324 l 551 133 l 551 86 l 551 83 q 553 68 553 81 q 556 41 554 56 q 558 14 557 26 q 560 -1 558 1 q 565 -11 563 -11 q 568 -10 567 -11 q 569 -9 569 -8 q 568 -19 569 -10 q 551 -51 564 -37 q 556 -62 553 -54 q 560 -80 558 -71 q 565 -99 563 -89 q 569 -142 567 -106 q 574 -230 571 -179 q 579 -339 576 -281 q 584 -448 582 -397 q 588 -535 586 -499 q 590 -579 589 -572 z "},"v":{"ha":786,"x_min":36,"x_max":763,"o":"m 763 547 l 475 0 l 340 0 l 158 351 q 159 308 158 346 q 160 211 160 269 q 163 80 161 153 q 167 -69 165 7 q 171 -217 169 -144 q 174 -349 172 -290 q 176 -445 175 -407 q 175 -489 176 -483 q 167 -521 175 -507 q 162 -527 164 -524 q 157 -535 160 -531 q 111 -553 139 -553 q 86 -549 99 -554 q 65 -535 74 -543 q 51 -513 58 -526 q 47 -489 44 -500 q 49 -423 49 -472 q 49 -305 50 -374 q 48 -152 49 -236 q 46 19 47 -68 q 42 189 44 106 q 39 342 40 272 q 37 460 38 411 q 36 526 36 510 q 41 529 36 538 q 53 506 46 521 q 70 478 60 492 q 92 465 81 464 l 160 628 l 188 619 l 222 551 q 238 522 229 550 q 253 455 246 494 q 269 368 261 415 q 283 280 276 321 q 294 208 289 239 q 304 172 300 178 q 306 190 306 169 q 307 244 307 211 q 307 315 307 276 q 307 387 307 354 q 307 440 307 419 q 308 458 307 461 q 313 444 311 451 q 317 429 314 436 q 319 408 318 418 q 321 386 321 397 q 319 369 319 381 l 408 201 l 631 618 l 658 628 l 754 574 l 763 547 z "},"w":{"ha":1082,"x_min":26,"x_max":1053,"o":"m 775 49 q 776 41 776 44 q 778 33 776 38 q 778 0 778 29 q 778 -70 778 -29 q 778 -159 779 -111 q 777 -248 778 -207 q 775 -317 776 -289 q 771 -347 774 -344 q 764 -328 768 -350 q 754 -271 760 -306 q 744 -194 749 -236 q 733 -115 739 -151 q 722 -55 728 -79 q 713 -31 717 -31 q 697 -32 706 -32 q 681 -33 689 -32 q 681 -78 681 -40 q 683 -169 682 -115 q 687 -284 685 -222 q 690 -399 689 -346 q 693 -491 692 -453 q 694 -536 694 -529 q 690 -560 696 -549 q 676 -581 685 -572 q 655 -594 667 -590 q 631 -600 643 -599 q 585 -581 604 -600 q 572 -560 575 -571 q 567 -536 568 -549 q 564 -472 565 -519 q 561 -360 563 -424 q 559 -224 560 -296 q 559 -90 558 -153 q 560 22 560 -26 q 564 86 561 69 q 569 99 567 94 l 540 158 l 463 1 l 328 1 l 26 585 l 33 611 l 131 665 l 157 656 l 396 203 l 457 328 l 438 363 q 428 341 433 356 q 416 312 422 326 q 402 286 410 297 q 386 275 394 275 q 374 285 381 275 q 360 307 367 294 q 347 332 353 319 q 336 349 340 344 q 317 394 317 368 q 317 452 317 424 q 315 510 317 481 q 310 524 313 515 q 304 549 303 536 q 303 561 303 556 q 306 574 304 567 q 308 582 306 576 q 321 608 313 596 l 322 613 l 325 615 l 333 624 q 340 610 336 626 q 348 567 344 593 q 356 510 351 542 q 364 453 360 479 q 372 408 368 426 q 381 392 376 390 q 381 410 381 392 q 379 457 381 429 q 377 517 378 485 q 375 576 376 549 q 374 623 374 604 q 374 642 374 642 l 418 667 l 444 657 l 540 464 l 633 656 l 661 664 l 757 611 l 764 583 l 624 328 l 685 204 l 922 657 l 949 667 l 1044 613 l 1053 586 l 775 49 z "},"x":{"ha":757,"x_min":35,"x_max":719,"o":"m 719 86 l 719 58 l 628 3 l 600 3 l 563 47 q 558 48 560 47 q 554 49 557 49 q 555 12 554 43 q 557 -62 556 -19 q 560 -155 558 -106 q 563 -248 561 -204 q 566 -323 565 -292 q 567 -360 567 -354 q 563 -384 568 -372 q 549 -404 557 -396 q 527 -418 539 -414 q 503 -424 515 -422 q 457 -404 476 -424 q 439 -360 439 -387 q 437 -308 438 -346 q 435 -219 436 -269 q 432 -112 433 -168 q 429 -5 431 -56 q 428 84 428 46 q 429 136 428 122 q 433 168 431 151 q 440 200 435 185 l 407 242 l 215 3 l 186 3 l 94 58 l 94 86 l 293 333 l 292 333 l 221 418 q 212 408 217 413 q 201 400 207 404 q 169 392 186 392 q 167 360 168 385 q 166 306 167 335 q 165 253 165 278 q 165 221 165 228 q 145 168 163 193 q 100 142 128 143 q 76 146 89 140 q 54 160 64 151 q 40 181 46 168 q 36 206 35 193 q 40 280 38 232 q 47 379 43 328 q 57 478 51 431 q 69 551 63 525 q 73 534 71 554 q 78 482 75 514 q 85 411 82 450 q 92 340 89 372 q 99 285 96 307 q 106 265 103 264 l 93 599 l 185 656 l 214 656 l 406 454 l 599 656 l 626 656 l 718 599 l 718 571 l 514 333 l 518 333 l 719 86 z "},"y":{"ha":829,"x_min":29,"x_max":793,"o":"m 793 574 l 492 -42 q 448 -139 468 -94 q 408 -219 428 -183 q 375 -285 390 -256 q 347 -337 360 -314 q 325 -373 335 -357 q 306 -401 315 -389 q 331 -482 315 -440 q 335 -515 332 -487 q 341 -583 338 -543 q 348 -670 344 -624 q 354 -757 351 -717 q 360 -826 357 -797 q 367 -858 364 -854 q 375 -882 374 -869 q 374 -907 376 -894 q 344 -946 367 -932 q 294 -953 321 -960 q 256 -922 268 -943 q 244 -879 250 -912 q 233 -800 239 -846 q 221 -702 226 -754 q 210 -604 215 -650 q 201 -524 206 -558 q 193 -479 196 -490 l 193 -478 q 185 -476 188 -478 q 149 -459 164 -474 q 131 -424 133 -444 q 114 -414 119 -418 q 43 -372 85 -397 l 38 -353 l 85 -253 l 107 -247 q 121 -253 115 -250 q 131 -258 126 -256 q 138 -262 135 -261 q 146 -265 142 -262 q 160 -272 154 -271 q 175 -281 164 -276 q 194 -278 186 -278 l 196 -278 q 199 -294 197 -278 q 202 -334 200 -310 q 206 -387 204 -358 q 210 -440 208 -415 q 214 -481 213 -464 q 217 -497 215 -497 q 217 -478 217 -496 q 218 -434 218 -460 q 218 -378 218 -408 q 219 -321 218 -347 q 219 -276 219 -294 q 221 -257 219 -258 q 263 -182 235 -232 q 294 -122 275 -157 q 336 -42 313 -86 l 203 250 q 203 247 203 247 q 204 243 204 246 q 206 215 204 228 q 208 186 207 201 q 210 173 210 179 q 213 160 211 167 q 215 131 214 157 q 217 66 215 104 q 219 -17 218 28 q 220 -99 219 -61 q 221 -164 221 -137 q 219 -193 221 -190 q 217 -201 218 -197 q 214 -208 215 -206 q 197 -227 207 -219 q 175 -239 186 -235 q 125 -232 149 -246 q 107 -215 115 -226 q 96 -193 99 -204 q 91 -147 93 -182 q 87 -65 89 -111 q 83 35 85 -18 q 78 135 81 89 q 75 217 76 182 q 74 264 74 253 q 73 298 74 281 q 79 332 72 315 q 89 353 82 343 q 104 371 96 363 q 99 379 101 376 q 83 394 92 388 q 67 410 74 401 q 29 492 31 446 q 43 540 29 517 q 48 540 44 543 q 56 533 51 538 q 64 524 60 528 q 71 524 68 521 l 56 574 l 63 600 l 160 654 l 186 644 l 424 181 l 663 646 l 690 654 l 786 600 l 793 574 z "},"z":{"ha":732,"x_min":50,"x_max":690,"o":"m 681 -568 q 689 -592 688 -579 q 688 -617 690 -604 q 658 -656 681 -642 q 608 -662 635 -669 q 569 -632 586 -656 q 552 -599 560 -617 q 540 -561 544 -581 q 537 -522 539 -557 q 532 -435 535 -486 q 526 -324 529 -383 q 520 -214 522 -265 q 516 -127 518 -162 q 514 -87 514 -92 q 514 -83 511 -86 l 503 -83 q 495 -102 497 -82 q 491 -152 493 -122 q 488 -217 489 -182 q 486 -282 488 -253 q 482 -331 485 -311 q 475 -347 479 -350 q 454 -333 464 -342 q 438 -315 444 -325 q 433 -289 436 -312 q 426 -231 429 -265 q 418 -158 422 -197 q 410 -85 414 -119 q 405 -28 407 -51 q 403 -1 403 -4 l 71 -1 l 50 19 l 50 146 l 400 500 l 299 500 q 290 488 294 497 q 280 469 285 479 q 270 452 275 460 q 260 443 265 444 q 251 450 256 443 q 243 465 247 457 q 235 481 239 474 q 226 488 231 488 q 226 465 226 485 q 224 422 225 444 q 222 378 222 399 q 219 357 221 358 q 209 349 213 344 q 205 363 206 354 q 206 373 204 371 q 208 356 207 375 q 204 331 211 343 q 190 310 197 319 q 144 292 172 292 q 119 296 132 290 q 99 310 107 301 q 86 331 88 321 q 81 356 79 344 q 75 401 78 379 q 69 446 72 422 l 61 508 l 50 521 l 50 631 l 71 650 l 590 650 l 615 631 l 615 501 l 269 147 l 596 147 l 615 128 l 615 21 q 632 0 625 13 q 641 -22 639 -11 q 644 -44 643 -32 q 645 -57 646 -51 q 643 -69 644 -62 q 643 -97 640 -82 q 645 -133 643 -99 q 651 -217 647 -167 q 658 -324 654 -267 q 664 -431 661 -382 q 669 -515 667 -481 q 672 -551 671 -549 l 681 -568 z "},"ı":{"ha":744,"x_min":0,"x_max":0,"o":""},"!":{"ha":365,"x_min":32,"x_max":281,"o":"m 251 207 l 100 207 l 100 1024 l 119 1043 l 233 1043 l 251 1024 l 251 207 m 250 -42 q 181 -72 222 -69 q 167 -75 172 -75 q 149 -112 165 -94 q 128 -126 142 -121 q 104 -131 115 -131 q 81 -126 93 -131 q 61 -112 68 -121 q 32 -40 32 -79 q 61 31 35 1 q 67 35 64 33 q 72 39 69 36 q 103 106 75 79 q 176 136 132 136 q 250 106 219 136 q 281 32 281 75 q 250 -42 281 -8 z "}}}
